<mxfile host="Electron" agent="Mozilla/5.0 (X11; Linux x86_64) AppleWebKit/537.36 (KHTML, like Gecko) draw.io/24.7.5 Chrome/126.0.6478.183 Electron/31.3.0 Safari/537.36" version="24.7.5">
  <diagram name="Page-1" id="wlWoaTRwPZ-uL9SZtQUs">
    <mxGraphModel dx="2868" dy="2786" grid="1" gridSize="10" guides="1" tooltips="1" connect="1" arrows="1" fold="1" page="1" pageScale="1" pageWidth="850" pageHeight="1100" math="0" shadow="0">
      <root>
        <mxCell id="0" />
        <mxCell id="1" parent="0" />
        <mxCell id="T8sHocV2XEBzGalDrwzr-2" value="Violation rule 30: 204 (“No Content”) should be used when the response body is intentionally empty" style="shape=table;startSize=30;container=1;collapsible=0;childLayout=tableLayout;strokeColor=default;fontSize=24;" parent="1" vertex="1">
          <mxGeometry x="92" y="-20" width="1578" height="630" as="geometry" />
        </mxCell>
        <mxCell id="T8sHocV2XEBzGalDrwzr-3" value="" style="shape=tableRow;horizontal=0;startSize=0;swimlaneHead=0;swimlaneBody=0;strokeColor=inherit;top=0;left=0;bottom=0;right=0;collapsible=0;dropTarget=0;fillColor=none;points=[[0,0.5],[1,0.5]];portConstraint=eastwest;fontSize=16;" parent="T8sHocV2XEBzGalDrwzr-2" vertex="1">
          <mxGeometry y="30" width="1578" height="40" as="geometry" />
        </mxCell>
        <mxCell id="T8sHocV2XEBzGalDrwzr-4" value="&lt;font style=&quot;font-size: 24px;&quot;&gt;API&lt;/font&gt;" style="shape=partialRectangle;html=1;whiteSpace=wrap;connectable=0;strokeColor=inherit;overflow=hidden;fillColor=none;top=0;left=0;bottom=0;right=0;pointerEvents=1;fontSize=16;" parent="T8sHocV2XEBzGalDrwzr-3" vertex="1">
          <mxGeometry width="175" height="40" as="geometry">
            <mxRectangle width="175" height="40" as="alternateBounds" />
          </mxGeometry>
        </mxCell>
        <mxCell id="T8sHocV2XEBzGalDrwzr-5" value="&lt;font style=&quot;font-size: 24px;&quot;&gt;Azure ML&lt;/font&gt;" style="shape=partialRectangle;html=1;whiteSpace=wrap;connectable=0;strokeColor=inherit;overflow=hidden;fillColor=none;top=0;left=0;bottom=0;right=0;pointerEvents=1;fontSize=16;" parent="T8sHocV2XEBzGalDrwzr-3" vertex="1">
          <mxGeometry x="175" width="1403" height="40" as="geometry">
            <mxRectangle width="1403" height="40" as="alternateBounds" />
          </mxGeometry>
        </mxCell>
        <mxCell id="T8sHocV2XEBzGalDrwzr-6" style="shape=tableRow;horizontal=0;startSize=0;swimlaneHead=0;swimlaneBody=0;strokeColor=inherit;top=0;left=0;bottom=0;right=0;collapsible=0;dropTarget=0;fillColor=none;points=[[0,0.5],[1,0.5]];portConstraint=eastwest;fontSize=16;" parent="T8sHocV2XEBzGalDrwzr-2" vertex="1">
          <mxGeometry y="70" width="1578" height="59" as="geometry" />
        </mxCell>
        <mxCell id="T8sHocV2XEBzGalDrwzr-7" value="&lt;font style=&quot;font-size: 24px;&quot;&gt;Expected status code&lt;/font&gt;" style="shape=partialRectangle;html=1;whiteSpace=wrap;connectable=0;strokeColor=inherit;overflow=hidden;fillColor=none;top=0;left=0;bottom=0;right=0;pointerEvents=1;fontSize=16;" parent="T8sHocV2XEBzGalDrwzr-6" vertex="1">
          <mxGeometry width="175" height="59" as="geometry">
            <mxRectangle width="175" height="59" as="alternateBounds" />
          </mxGeometry>
        </mxCell>
        <mxCell id="T8sHocV2XEBzGalDrwzr-8" value="&lt;font style=&quot;font-size: 24px;&quot;&gt;204&lt;/font&gt;" style="shape=partialRectangle;html=1;whiteSpace=wrap;connectable=0;strokeColor=inherit;overflow=hidden;fillColor=none;top=0;left=0;bottom=0;right=0;pointerEvents=1;fontSize=16;" parent="T8sHocV2XEBzGalDrwzr-6" vertex="1">
          <mxGeometry x="175" width="1403" height="59" as="geometry">
            <mxRectangle width="1403" height="59" as="alternateBounds" />
          </mxGeometry>
        </mxCell>
        <mxCell id="T8sHocV2XEBzGalDrwzr-9" style="shape=tableRow;horizontal=0;startSize=0;swimlaneHead=0;swimlaneBody=0;strokeColor=inherit;top=0;left=0;bottom=0;right=0;collapsible=0;dropTarget=0;fillColor=none;points=[[0,0.5],[1,0.5]];portConstraint=eastwest;fontSize=16;" parent="T8sHocV2XEBzGalDrwzr-2" vertex="1">
          <mxGeometry y="129" width="1578" height="70" as="geometry" />
        </mxCell>
        <mxCell id="T8sHocV2XEBzGalDrwzr-10" value="&lt;font style=&quot;font-size: 24px;&quot;&gt;Received status code&lt;/font&gt;" style="shape=partialRectangle;html=1;whiteSpace=wrap;connectable=0;strokeColor=inherit;overflow=hidden;fillColor=none;top=0;left=0;bottom=0;right=0;pointerEvents=1;fontSize=16;" parent="T8sHocV2XEBzGalDrwzr-9" vertex="1">
          <mxGeometry width="175" height="70" as="geometry">
            <mxRectangle width="175" height="70" as="alternateBounds" />
          </mxGeometry>
        </mxCell>
        <mxCell id="T8sHocV2XEBzGalDrwzr-11" value="&lt;font style=&quot;font-size: 24px;&quot;&gt;200&lt;/font&gt;" style="shape=partialRectangle;html=1;whiteSpace=wrap;connectable=0;strokeColor=inherit;overflow=hidden;fillColor=none;top=0;left=0;bottom=0;right=0;pointerEvents=1;fontSize=16;" parent="T8sHocV2XEBzGalDrwzr-9" vertex="1">
          <mxGeometry x="175" width="1403" height="70" as="geometry">
            <mxRectangle width="1403" height="70" as="alternateBounds" />
          </mxGeometry>
        </mxCell>
        <mxCell id="T8sHocV2XEBzGalDrwzr-12" value="" style="shape=tableRow;horizontal=0;startSize=0;swimlaneHead=0;swimlaneBody=0;strokeColor=inherit;top=0;left=0;bottom=0;right=0;collapsible=0;dropTarget=0;fillColor=none;points=[[0,0.5],[1,0.5]];portConstraint=eastwest;fontSize=16;" parent="T8sHocV2XEBzGalDrwzr-2" vertex="1">
          <mxGeometry y="199" width="1578" height="431" as="geometry" />
        </mxCell>
        <mxCell id="T8sHocV2XEBzGalDrwzr-13" value="&lt;font style=&quot;font-size: 24px;&quot;&gt;Postman request example&lt;/font&gt;" style="shape=partialRectangle;html=1;whiteSpace=wrap;connectable=0;strokeColor=inherit;overflow=hidden;fillColor=none;top=0;left=0;bottom=0;right=0;pointerEvents=1;fontSize=16;" parent="T8sHocV2XEBzGalDrwzr-12" vertex="1">
          <mxGeometry width="175" height="431" as="geometry">
            <mxRectangle width="175" height="431" as="alternateBounds" />
          </mxGeometry>
        </mxCell>
        <mxCell id="T8sHocV2XEBzGalDrwzr-14" value="" style="shape=partialRectangle;html=1;whiteSpace=wrap;connectable=0;strokeColor=inherit;overflow=hidden;fillColor=none;top=0;left=0;bottom=0;right=0;pointerEvents=1;fontSize=16;" parent="T8sHocV2XEBzGalDrwzr-12" vertex="1">
          <mxGeometry x="175" width="1403" height="431" as="geometry">
            <mxRectangle width="1403" height="431" as="alternateBounds" />
          </mxGeometry>
        </mxCell>
        <mxCell id="G9TmppLuh2G4B7BbUdOk-1" value="" style="shape=image;verticalLabelPosition=bottom;labelBackgroundColor=default;verticalAlign=top;aspect=fixed;imageAspect=0;image=data:image/png,iVBORw0KGgoAAAANSUhEUgAABWkAAAGiCAYAAACVjUS7AAAABHNCSVQICAgIfAhkiAAAABl0RVh0U29mdHdhcmUAZ25vbWUtc2NyZWVuc2hvdO8Dvz4AAAAqdEVYdENyZWF0aW9uIFRpbWUAem8gMDQgYXVnIDIwMjQgMTM6MTQ6MjMgQ0VTVKOiNkYAACAASURBVHic7N1hbFvnne/5b9KUTNtQzV2xxQzV7uJkMFfs7Ax1mwVzJxFvU9C9rjkdV8JEYHBlETNaCYhALGQJqC4NyNYLWcK1ygCSjYGgABY0A8lZhFAWkj29tL0bwtMreeaWULZijZbawZjAnZJ9UWpvK2bbHqZN9wUpiaQokVJsK05/HyBoTZHPec45z3me//Oc5zznCcMwfouIiIiIiIiIiIiIPBKf/exn+fnPf77z7yePMS8iIiIiIiIiIiIiv/M0SCsiIiIiIiIiIiJyjDRIKyIiIiIiIiIiInKMNEgrIiIiIiIiIiIicow0SCsiIiIiIiIiIiJyjDRIKyIiIiIiIiIiInKMnqrnS5/5zGf4zGc+wyc+8QmeeOKJh50n+Zh4//33+eQnP3nc2RAREREREREREXkoPvjgA95//33ee+89TNM8cjo1B2k///nP89vf/pZf/OIXfPDBB0fekPzuefbZZ/nZz3523NkQERERERERERF5KJ544gmefPJJnn32Wba2tvjlL395pHQOHKT99Kc/zQcffMAvfvGLIyUuIiIiIiIiIiIi8nH129/+lt/85jfkcjkaGhr44IMPjjSj9sA1aT/96U+Tz+ePnEkRERERERERERGR3wW/+MUveOaZZ4702wMHaZ966il+/etfHylhERERERERERERkd8VH3zwwZHfz3TgIO2TTx74ZxERERERERERERGhsPTBUcdTNQorIiIiIiIiIiIicow0SCsiIiIiIiIiIiJyjDRIKyIiIiIiIiIiInKMNEgrIiIiIiIiIiIicow0SCsiIiIiIiIiIiJyjDRIKyIiIiIiIiIiInKMNEgrIiIiIiIiIiIicow0SCsiIiIiIiIiIiJyjDRIKyIiIiIiIiIiInKMNEgrIiIiIiIiIiIicow0SCsiIiIiIiIiIiJyjDRIKyIiIiIiIiIiInKMNEgrIiIiIiIiIiIicow0SCsfSba2GdbujNFqOe6c1MOCyx+iy20r+7SxtYuBNhePxS6IVHiQ5dfiusCttWv0OB5AYofdtvsCt+7eIXzKVvO7jyKdIzO89Aycwqj2p6457t67x60L7orz1Yi76zLX1+5x71oXjfulbWnlwq173Ls3h/+wu2cxOHVhjut31ri3tsadxcsMtO67pbq3tf8+WTBOXWDu+h3W1tZYu7PI5QEvRytajZy6fId79+4S9laWdBuurjDXbt1l7d4ad6/PceGUcfjrwdZMW/H4rN1b4871GUJexxGvqwPy6/AycHmRO2tr3Fu7w/WZEKeMyq048A7MsHhnjbW1Ne4cdZ8OYHP5Gbt2i7tr91i7e4vFcA/uA4rDfizGKS7MXS+mc4fFywens395qfptBhbvce9etf/uMLYTeDygMlC6X80DLK7d495iz55rudHdRfjaLe6urbF25zrXxrpwlVwj9dejh79GDl+HWGgN36ly/K4TctVzJACbn7mq5+Ae99Yuc6riQCumKrIYeAfCXLtVPL93b3Et3EOr43E9Ms20DfTgPYb4QD6uLHjDd1mbaXuo9cWR48ID4rlHqb78G/QsrnG97or9wyut642ea9y7t8aMf78AwIL7wq2yuKh5YJG7d2bwPyZ1is3VxeXFO9xdW6szhimwuC5w69497oS97HcGbd4wd+qOjepk9LC4dnBb/1DOgcVL+O4a17qOEFQ+hp56GIlaXBe48earNJV8Zm5lSW/EWZ6fZj6WIl/83Oi5xo3BluoJrQzzfN8ybKd3/yqvfHOKjb1bpG3mXcY91ZNZnzzNmbif628GeO6AfGeXXuPk+Ti+WmnNpg5IRR6Zxi7mbveS7j/J+dXtEmWhdew2V4yrnDyzwOajyIfFQyDoxRyeLPnQhicQxJvsZupR5OF3WdVyIB/Ox6f85tNxYquQTJmH+FUzA9ffxBvr5JtTGx8inQfH8PYQbIkSrfxD4ykGel00ALnSzx1eQuER/E1pkumD8mzBFRykvQk49K7Z8I7MMO5OMj3azUraitM/QOjKG9DZydRG5fVY57b22yfA5h1nZtxFanqU7lgaa3M7AyNhrtBN51SCw9QAttZBBj12YGvP3wx/mJlBg/jkEJ3xHIZvkHPjM1hzHZxfrczVfhz4w3OEjDjTl/pYSZmFdMIz0N3BROJw9dW++bW4Cc2E8W3Oc6l7mJTVwBc8x/iMhc3TF4nnASy4QzOE23JERvsYTpk0+YKMHHqfDtrdNsIzIRyrkwyNrpJtcBMIhbj8usmZ7gXqjpwavYzMjONOzTPad56MxUUgNMjlK9B9ZnZvDHhAeakuzfxQJ7GKXo3NG+JKAJKpwnl5MGWglIH/nB/DuvcvFtcAb8wEsKxMc74vTs7mwj8wyMwMnDlziGPHEa6RI9UhVprsNrLRYV6bLk3TJJuuM6O5KKOdyYrOpRV38DJBR4pMWUY/Pm3Sh2Jx0TM3w6CRIRqZZjaeBrsTX6CHN950M9rdTyT1eMVBFpefoN/O5Oxx50QeT3vjtUflqHHhvvHcI3bccW111ep6K+62dozI7N620OLBf6KJ0rgoG19h1Z4l+QDCmoevkbbBQTzmPP2dUTLZwhiZ5dRl/mEchl88y80aVbq91Y+3McbynkGPRrx+L3ag3mb5QXm8zsFH00MZpN2xdZ94IoMJWO1OXG4fg+5WvJN9dM+WB4rm/TixjWz579czh95kej1KouJn6eQWZNdZjdqLwb0No9WDs2GL+yurbBQL0FY8U5anfdMSKWFpacVFgol4SemxteJ15YhrQF8eRx+n8pu5ycTQzY9OOkfSiNvjJLVynvImyUbr4CCe7BJL6XbcJX+xuH24s1fp649gG7lD2L5P0oafQb+dlbfeoaW94XDZsnnx+2ysDJ9nNlZoSDcunsfeskhbu5OpicQRtrX/PoGF1rZW7IkpOmdjhZtwqQlGnW7e9LXRMp0gXu/4hMVFT8iHGX2LuM9X8Tc3XT1uspFuhhYKscrGRj8YNxgP+pldrdJRqMbhxefMsjQ8xGzxBtLGxihOzyK+thYmE/H6B5UPyK/F48fXlOBq9xQ3NwE22Oi34rwziN8zQTyWB0sLbd4mUrMdTNxMFfMyjL3lNgP+ViyrNw81wF1No6cdNzGGhhco7G6K0Ylm3DPttBkLTNVZnTQHBvCZEbr7pyiMYycYHrIzN+ej3TVfMbh9UHnZT57NVKL8Jq7FRWjMSS7az3KGB1cGSjSeGqC3eYOlaCPtZVOobHh7/BipaTrObqebIJ6Ca4u99LRGDnED8rDXyFHrEAdGI2RXEmykjtpO5EglKuuILkJuiI/OU/aXj1Ob9CE0B0cIOlNMdnYzu3MTbJVYLEH22gyhET8r3Qscvvd0fAxvC/aNCHF15uVxc6S4cL947hgca1y7j2p1vWlCSxt+1yyVYWWjz0+rzSy777+5OsXQ6iPJ7QNgx94I6ViU1Y2j3GQwMa1u/O0Gy5Xto9GO3104fI/a43UOPpoe7nIH2RiX+vro6+uju+OrnOyeZ32rgZbBMQYrpkjnElcZHhpiqPS/hUN0YAAwSc4Pl6cxNMTU6maxItr+bIKVDECO+PTu9y8up+pL62Pg85//PGfOnOHpp5/e9ztPP/00Z86c4fOf//wjzFkpK02+MRbvrHHv3hp3r8/sPEZrOXWZu39/DrfVTvsb73Lv7mVOWQwGFt/ljXY71pZz/P29eywONLP92Mvdy35Ohea4dXeNe2t3uT53gbbm0sn/Ntw7jzbeY+3OdS73uHdmebgGrnH37jV6mstz6fS6sSVXyjo+FpeHlnyc2HoeLC4u3FpjbqCNC9uPMt66xgWvgcu/+yjlncUx2kofT3W0MnB5sZDf7cdkT+327GxtM6zdGsPfFS48vnqv8KhxV9nzkQanQjMs3tnep0UuD7SWP/bc2Fr2mOzimJ9ToeusXesqeTzSQWvPZRZv3S08JnvrGuEe9246Rg+La4tc8A8wt/2dxTHamps5daHkmF/uwlV2yN10jV3j1t011tbucmtxhoGSZ95q7WP1clC9NG0/SlrYz7tcnxsrOf82/HPVH7tc7DF281KxBIfFXXj8tMsBO+VsZoCey9e5s7b7eJCtuY0Lc4XP1u7eqVL2KlkwToWYWbzD2to91u5eZ+5CG837HLt7a3e5tXi57Ngd+ZxQUX7ZffT4ztq9wrauXdh9lLpYvq91lT7TYsM/t8adsdayx2tsrh4uXy8+OnzrGuEud9ksqgO3s88+92w/Wr99nYW6GFu8w9r2Y8tlj+XUURfY/Mzde5ve56w81/s29+7d4oK7Mh32ntc9j5hvb6uLtgu7eb4+M0DZagCWZvzb+1R8pDpU+dynzYO3OU08Xh6AWVxBQj6TpYkFkuW/IB8dpvPsAvEDm6xG2gZ6aU5MM7XPzMBq++jd3kdzhcnubiZipb81wQSrhT2PTdfaVq192t2EWRYb5HOHj0ANfwh/Q4yp6cTeSb1OL257mthS6c3kHLHlOKbTs/vYfY06mswC3V/9JhcrBtiONAfzgPzm49P0d49WmUVRfgZMwCyL1vNVgveSur54nY51ufZ9lG6PfHlnae/BtdHsH2Pu+p2dJRGuhbvYXS2oGZ+nidRyhNKx2PzGFGde2jv7uK7yUodGXw9tTUnmZ1cL56feMlBPGwtga2Vw0EN29hLL2co/2nE2WcmuJ8pnu6TiJNI23N6WQ9WjQN3XyJHrEEsTdjtka0ybPbjd3ZMorT0BnOllpqPlG60aU1XW9dTR1tasbx20DuzGOtvHt3E3I7Xbu+22t+cCc7fucm9thjZLMe0Dr63Sdr+w5MXcmH93yQuLi3afk+zSBPOVTynk4kxPLZG0OIvfrzMeqbI0St2xTq2Yup62DQdut0HynRU2t7d9K0zPwAzX766VxKE1zgs82Fi27Nx9iNiu5jGoOOd3K875Po/tGz2LrF0P0bxvnivTrh5H1o5NLTS3FdItlNkZBrx+Lq+VXHP7nbO6YtSKR6aLjzPPtJWmPUZbW7EvuLbbzlpg/3hthx1vaI5bd4sx5VyoYlmNGuUBaGwd4PLiHdbu3SuUq3DJ+anch0PHc/VdS0c7xs0MXN8bh1vcF7i1vSxNlXOwu+xOocxc7mre277U1Xfbm9+aMT57+x8AZjpGNNmEz99aEdU48Pnd5GNR4iVN3N467OC698hlmBrlgxr1rTHAYln5XePyqWdwX7jFu6+fwGo9wevv3uPenH//5crMJNFYGmebn8rVB1z+NpzpKNFkRftfK3atpw8KWIyuYixSjH0qj+nOOaizP1TH9Vjbg0jjo+GRrkm7GZ9gdPk+8Bxe/wNcG0MObWtri0996lP7DtRuD9B+6lOfYmvrmGYP21rp8mW52t/B6Vf6md100jt+Dq8N8jeH+OrJS6ybWZb6X+T5rw5xM59iqvNFXlvKYq5f4uTzz9NZ8uhLgydIwLZE/9df5PmTfcxm3Yy8Mc6p4pVrOzVCeNAgNd3H6ZdfpvNSnKbgGKFiLZ/LZMlkMmTLYmMDt7uJjdhKScfbQovXjWV9paSTacXl85GZ6uSrX+1gOG6jPXyNsHedic6v8uLJfqL4GBlpL1YkBj3hK/ibkkyf7eDlk52Mxmy0jY9Q1jdo8tLVEmfilRd58eVurmZbOBceKA66WXANXma8zUb8Uh+nXz5J56V1mgJhRrbXH7I0M/BGYTuTfR2c7hhinjYG25qwluyPOzRD2A/RiT46TncwNJ3E0TPDlZ6SSt1qcKLNynz3V3nxdHF/3nyDV3PTdH71RV7um2XTPchIwNjZds/MZXqbEkye7eB0Rx8TK1bawzOESoOsA/axejmoUpYa2xi/PEhzZp6hjtO83HGWiOlhJBwsBLnkiI520tm5/V83w9E05lacSOxwM3ca3D7cqSleO32SM9PJwiPAb4RouT/LUOdpTncPE9nyMHJlBO8+Ix+Fx1V9WFdG6e44SedQhC3PCG+Mb687VDh2QWeK2bOdnO7oYzLeQHt4jgutJYke9pwUz3d5+W0mGB7nhLnMcOfLvHz6LPO5E4yP+Q+3npbViT/oITXVR8fpTobmMzQPXuaKfzuVGtsplpdBZ4rZsx2c7Ohjct1Oz5Ur7BZDK26fD3O+n9Mvv1I+u730HB1UF+QivPZiJ/P3Te7Pd/Li86erp+NoI/zGCJ6tCMOdHXR0j7KMl/G58E6dUthWAF9mmu6vv8iLnROkjF7Gz3mL7Z8Fd+gKIXeW2bMdvPxyB0MxC21jIdpK0rC4PThzCWJloygGgZCfhtgUU/EqAzD5fM2bnDbvIEFPltnJCFVXRHC0EZ7b3sfTdHSOErP6CF8exG0B8ptsJDbKHku2uXtoc2ZZuZks237NbdWzT+RZXY6RdfXsdNJsLj8Dfiep6DLrtXZ4W2MboaBBYnqS2J4BM7A4HDSRIVlx6edTSTI4aG6yUHcdXZZwI+6uEAEjRXR5vf6b0DXySy5FIpEqa4OaewK4c3He2S67+XWWYymMQAh/sw2wYZwK0ePOEousFvNSqOuv9NiJT/bRcbKDs7MpXIMzhNtqLyy2ubLECl6Cg604LGBpdBMYPIEtscT2PXCbN8QbIQ/m8ijdp1/mdN80GdcgY6Fi58tiYDhypLIOusLFTuCegdxttcpLnSwuens85GOzRIr5rK8M1NHGFlLDFQzhM5eYmK/WnmyRyYG9yVHeGW50Ytit2OwllUHNevQw18iHqENsDuxWcLS/wfU7d0sGeEr2oGa7W8HwE/TZiM9epXwsvnpMtaeur9nW1qpvi+Xfbyc+eZaOjg7OTicxgjO8MXDItXCtTny+BqLnz/DyySGi+drXls07zsxIK7mlYTo7TtM5tEDaFWIm3FYcMHDitG+RWE1WPS+52EXOnDnPzZK7QNXjkdrtVj0Ojqnra9to9HDCSBGPl8wpbPLSZqwwceY0J/siZOo5Lw80lq08dwcdyw9T3sDmHWFm3Acro3R3dNA5tEDWFWLmyuHjq8o814wj64hNG0+FeWPkBGbkPJ2nO+ieiOMcCOKuXLJlzzmrM0ath93HYHuO6e6v8vyLpxmKgG/8cqGfUCNes7r9vGpZ4nz3aU73TZN0BAiPbA941VEeHH5eD/uxx0fpPPkyJ7snSblCjAWr1QdHj+dq9U+Pdow3WF5OYvP42O1SWXC3ebAnY0QqZqQCYHTx+uVBmjOFMtHRN03qxCD+0jV6DtF3q8xv7b5EtboeIEs0Esfi9Zf3m5r9+J1popH4ASto1RnXHKUM1yofterb1BSdZeX3RYZuvkd84jQvDr+Daa4w/OLzPP9a5MDlG5ORZZJNPvxld9Za8XubSC4vV9yArR271u6DAtYmfAE3iWIsMhw1cZ8LM+Dev6Ws3R+qo34+UB1pNLbVmdbxe7jLHVSRWkmQDTxHk+HCTvxRb16KfvWrX7GwsEBXVxdnzpzh2rVr/OpXvwJ2B2ifeOIJFhYWdj5/9DZYGN5+fDPF7KUlfG/6aHVaiMXz5E0Kgappks9vd0R3q2mzsoORW2F6dJmN4uOTy8NTuG+HCfgc3FzIYGtyYMuliMUSZHLAzYt0rlrI5wqppCJn6YhUZNHRisdIsVI21cSgtcVGYj5eNmMqHZtmNr4JbHJzPkaw3Ud8NkJiMw+sMr+UxB9o5jkLbOZTzPadZIlNNouJxKYjJAIh3C4LC9ujImaC2dHtx8QSRGbfITDjxG2HRCZPYuIMJ6+abG4Wv39zlqVAOwG3E8vNOHh6aTdSzHacL3aiU6TOj2Isvk3vdsZtPnrarETPDjFbDH5Syxc5b29hsc2Pa3ai8FiimWNlepJYprA/V5eSBIJZ3pqOs5kH4vO8lQgy4mrGQgo8vQSa4lw6PbHTqchMfQub8zaDbW4m46t17WPVclBpc5n+03Gsm5niOckQmV+h90oLLTbYyEEuldh5vLLRO0bYC7Ghb+102utlJucZnYrtPMbkCvbgTk1x+uJy8bMMC0MTtNwew++1EVuunFdn4O/xYo0N0T8VK+Q3tcD5oRx+p4kNML29BJwZZjvO7+QvNfEtrMYNRnp9TK8WG/RDnpPiSozl5ddip8kO6WiM1Y1C+V3oP00knzv049GJ2W8xFStcK6nUMBeNG8x1+XFFJkjU2I7F00vAmWK6ZJ8zF4fIpXzYLNtBgcn96AQXl6tFnyVq1AX5XHE2oGmS26dMuQI9eMwluocWirPoU8z2mxi3r9AbaObm9rPdqQgTs6uFc7+xzFQkwKLfjdMSI5G34miyY6ZivBNPsQmsTnXz9ek8uZ3NWmjxuiAxUTbA4mgL0WMkmBqKkTvKa7MsboIDPsylPuY3gCrLIbgCPbizEbqHFooBc4apb+XItDvABnuiRkcbY+F2rLEhpsseLai9rXr3KRebYHR5jvDrN2h/vfBZNj5J/3S969Ha8J4bxJ2ZpTOSqZxsCoC1oQHM7N70tkxMrFhtAHXW0YU9o+vaDc61WMFMszLRz3Td69HWzm+lRu8I4YCd+Gh/yYBNnsTkKLPOK4y8/Q+MFHaI5PxZJrZnNtt89LTZiU90M3GzeJ1GRhnaSuHOV1lItVJmmYlLbmbG3+B2oPCRmX6H0b7IztIAudgor5y2kctsFo5vZpn5WA9zbjdNrJKyNtBgtWEMjmPErzJxdopco4uuwUFmZqx0ds+yPYnwQ18DO8erMIt29mxsp82urwzUbmPzAEaAkL+B2NAU8Xx+z2wX2CQ6HyMYHmS8J8PofJxsUyvBkUHc1r2TkQ+sR6n/GvlQx8+aIbkSx56J8c7VaTYx8PYGGZ9rgo6+wpIRdbS7u3Zn0XZHKyuWajHV3rreFajV1nJwfWvz0eOvKP+pi/TbnNwI9uCdPcvNeu8FmFlik8NEtutBW1uNa6vQ7ucinQwtFCcXpCKMnm/GPefH61hmwWrDRo77h5iKXy0eObjdOsTjtge2o7k62jawuVtpzq0zWfYgY5zZ8wvsPHBha6t5XmLuBxnLVpy7YqV7+NiuRnnDwN/jwxobYmgn1ksxfN5g8c0eutxLXKy3m7wnzwaBGnGkUfN6sdMe8EBsiKHZ7TRmGbK4uPV6xbtkKs6Zpd4YtQ5Wa5r5SxMU5kvkiC8MM+m5QajHx1R8mdxB8VoqyqWLy8WlDlOMzp7g9oCbFkuEmLWO8mA3aLRmWY2usJHJQ2aZ4dPRfW5gHT2eqxWTHvUYp6JREsFe2j0WVmN5sLjxeewkr0aqLNdjwd0VwJ2N0Dm8/SRLiqlvNdBye2RnJqKl7r5bxXVcV1+iev8ZIBeNsBoM82rb9jGx4A74aEpGiKybDOzZn6J645qjlOEa5aN2P2Gjen8jv/2Uk4lp5tmva7sjvUQk3kPI78W2epMcYPP68driTCzdx+Yt/XKt2LWpZh+08DOT+NXdpc5Sk1N4vDO0uJogvk/H+aD+UD3XY43DUFcdv7lcK5WPjEc+SJvP5dgC7DYbNti5MO3tb/Bue+k3Td751oucrbVachkrJ15/l3uvl34W59LL3SwcepWCB5nWR1O1gVrgIzJAC+TSpEtr6WyWHFasR5yCbSbj5Xfm8nHiSfC2OLEsZMhE54n5xwnfuk4inmB9NUb0nViVF9Xtsrk9NKfjXCqtjxwe3EaKaNnArUkuXT4FKm+a5M2SxznyebBad/vgZgNOXzsetxOjyYHdYeC0Wlkp7SvnsmRLOg35rRw5rNhK7jTaW9oJtLowmpoKaTxnJZcqbKXJZWBLxyvq0xSrySw7E16dLoyGJtwzd/CVdlCsDVjNNA4LxYpzi1xp9J3PY+Zz5Q2tyc6shiaXgd1uMH7rbnHAoJis1Yo10bRbP9Sxj3WxNuHtCeByOnjO0YTDMLBbk1h2W5wCw8/4mI9cpI/h2BEu9lyO3TNtw+l8DqsrxOLd0hDCirXBSspwQGUJszTjMiAZWSnLVi6xzGyxhTKqnrdNVlY2oNeF0xKhECYd7pwAe8tvPs78fJKZwUVu+eIk4nFWYjGih11AzkwRT5Qezzzrqwm22p04bZDIHbyd6mU1w+pC8W0jxQun8jqrmpUadUHtVqcRp7OJbGKqPNDOx1lZB5/TWbgRAZjZbNkjzFu5HGArHvMcsfklAlfGuXHLTzyeIL4SJRZLlJwjJ16XjeRsyfI/Ni+Dg24ys51EjrioWXNgAH9DjKGpQrp7q1UbTmcTucQKydJ93IwTqfaCl8ZWLsyM4E5P0zccK+uA1d5WvftkwR2a40obREf7iaynsRoeuoJBZt4w6e5eYAMbbTN3GPeUBt/rTHacYTYFFneQAa/JUt/8vnW7ubUFVsvefDZYsWKyU23XU0cDkCV6vpOEzY7D3U5wYI45Rx/dUwnyFi/h22F89t0fmffn6e6YIJGvL79lh9E1wJUxHyz1M7RcciAtzXTNzdBjW2WyP8JK2qTJ7ScYnGHO7KNzKg5OF4Y1xXy8/DrduDm7s57/Qce20TvG3LiHTGSYiWiSnNWJtyfIyFwYOs8WBu7Ig92N3++mxWjC3uTAMJ7Dml7dHgrBxIolOcprQ8vFchRnPWVj8e0AvZ55hmL5usqLxX2BxZlXeW4nuybZ6BAnh2Il13gzgaCHfGyo7IZc3WWAg9tYcOAP9WAkphiK7V9n5mKjvDYxQnhgjtuDgJllfWmSaXOEQK7kdzXr0XquET58HZKJMXE2VvJBnHgijW3xDXoCLpa3Fw6st911+On12YiPVs6iZZ+YqrKur6+tPai+tThdGKSIrJRvJxOPk7J6aTHgZt1rapS3vZZa15blFC7DitM5x11/afatNFizGE0WuJ8jh42GsknaXsJ3wvgaioXcTPNW3+ndwb2yeKSedqv+QdqD29FYHW2bBfeJFvLx4fI2piLmq+e8bDzMWHYnX4eP7Q48BjuxXvmAVD4ZI5H142y2Q7x2PEO1PNeMI214auXfYlTNXy4eZ8OsGKStOGfV47VqMWpt5tYGiYp0FrO8lAAAIABJREFUEvEMVr8Lw7K8t74o/W02VTYYmSup1+sqD4kIC3EfobnbuBNx1tfjxJajrFZ9Od8R4zlqx6SF5I9wjDNRluJBQm1ebLGbmJ52PLYE09Fqlb4N4zk72T0x3zrrKZPtcb6j9t3q6kvsU9cDmLkVIu9kmWn307wwxYbNS5fXRnxqidQBq9HXrHu3HeX4Hlg+6qtvDzvZpbpNYpFVBsOv4nPcJJJx4HvVQ351iNgm7Jk7elDsWkcftJBGlkym5Bv5LbImWGz7D9Ic1B+qv37eX11pPJgD/kg88kFai81GA0AuS47dwYG9Lw4ziR8hcNz7sq8kR33R6YNM66OqcqAW+GgM0D4M1r0zgaxWdjsKmZsMnY7j8pzA3erG0zVGYCDFfF83U1Wvagtur4tcvPwFIo0eD85UnPMfZkV4m5sL12bwEScaWyG6EiWTsdMzEzpEIo2cCr/JeGuOlegK8egKqVQGZ2iOwM4e7KNyoUIzSaRviEi28mtbFcs/1M8CmOkoQ317X8BibmUL65MdLem923L1MDcTxL4RJbqyylvRFBlLG+Fxo/KLDIRDuDYmOTNx2DWxq24ZMNlaGeXMVGXzYmJmDwrArfCAmu/D2Ft+8yRmz/D1mJvW1lY8bi/BmSDB2DDdQzcf4IsPDt7OA1WrLniEcqsX6TgZodXjweN2035ujsHgEv1nLhbu6Bte3E0bRFZ2piPgHhjAay7RN3/ENxk7/Az2GCSmhth/3KhYO1Q5Vnu/6mLgSph2lujvny0PgurcVl37ZPPR4zeIT5zkfKQYcG9sEN+wsXijl0BrhPOrOWKjnbxSVnnki2+cby4+3j3M1EFvGMtkSNOK04CbJdmxGE4cZIjczx+yjs6zmdpgkw0SiVU2uMZiTwDP9BCxfJzJ1zq5Wvb1bDHWqDO/O/nzE74SwL46TPfF1bLibHEH6HVmmO0YYvvdEhsbCdbzTdwe6MI7G2d7yG3/M37QsXXgK84K65/YnpG6QWI9g+3GDD3+ZpanNjD8M8yFnKRjUWKrUVLpFKZnhCutxeTMLNmcSSpe/mKvfCrBxlYAu70wuldPecmvT3O2M1LezuXKb8I0ngrib0qVzaIF6isDdbSxNu8gQXeGSGekRl2ZYyMyxDeXRnE02SGbIpNrZuA6pFaS+9/cqFTXNcKHr0Oq7kKceMrE53BgIQH1trtYaA0GcGWj9O2ZRVtvTFVfW3tQfXvQpMUHtTzbwbWpSXyym9HKl8SZJtlsHkhyP9uAp9WJJVacFZ2PM9ldqD+sTQHGwq7SB8oerhrtaM22zdJCq8vC+uTRYy1Lxf/u8dBi2Q9f3lYfyXnaL46sJ/9GscBWZLTmtL5H4EF1DmqWhxSRvpOsuL14Wt20tvQQDgTZmHyN7oW9defh47mihxaTbhJbihMa8dFqW4W2Viwro1SpZg/MS6mj991q9yUOruvzxBeipNp9+N3TTBuv4smvMnTgzpTsVl3fOqyDyke9N1gejNxKhHeyM/j9zSwt+/C7srzTt0Ku8mzUHbseQx+01vVYT0NcIw2Lq4d8otpMk4+eRzxIa8HpcWEH0skNskBT8S+5xFWGz69+yOJQfNnXoWbfPoq0PtpKB2qBx36Adr8zZjVaabVFdh//tLXS2gypd4odoMZmnPYsiViERCzCLM0MLL5Nu9/NdKJK2bS48bbkSYyWri1ow93aTDo+eeg3P5cl7TyFpynJbEffTocaRxcD1kO02RY3vlY78YkOzu48Ut+Mx7bbVKWSacyAC5eDkhsSTbhamrAW47L8/QQpfBjGFqmSO5GNLi9OyzpHbYZSiRS5gBODFLvLvtpobnVjM9MP9K2nhteHM7dE92sXdwaQbG1d2Mpa7Ua842ECthjDry3sDT5ME2x27CXtltXRVJFGpRzJ+1kaPC7s6eXdl8tZDFo9TWSyVfYyX5g1EPC4sS3vDhxYXG0EnFmikVXSiRS5gBu3QckMg0Y8nmZIRcvvgh9KtfJrw3AZmMk4Nxfi3FwA26nL3BoP4G28ycKmSc4EW1NpIGBgNFopu2VqNfC4G5lNbZchCy2tLhrSMZK52tuJVN1nB61dPmzxeW4e4oKrVRfUtkkymcbubaXFEis5r248LZBaqjcdC43NLdizcVaXN1hdnoXGLuZuD+JvnWD1Zh5HqxsjGdt9eY+lhVOe57A2Pcfcu6+WJ9cyx7vtKwy/2MfyARlo9PjwNDTAyG3ujZT/beQf1uia7+abE8nq+9joxt/uILW0XMiTxcB/5QoB+yrD3RepfLdmXduatNa3T5bCLMatrYqd28pimpad2fW5zEb1+WDNPnxOK3bn6/yD7/Xyv115F+/6JU6fWSCTXCGR8+NtdzE9sf2IuA1vmxtrap74JljctetoS2uIN3otzPdfLBugLowbbEebOTL7vdG33vwCOE4xPhPCmZyge7jKzRNb4VFps2KJ+fzWFqa1gQbLbl3v9jQyG9m9Tg1vgFZiLMRS+x9bbNitVkyz4sVh+S1yphWrrQELjbh9bogN0b0zm9VCq8++24HKJ4gnTbwuF42kdgZqLYaLZmuORDp3iGtgk9TGQR24ZgK9e2fRAuTrKAO121gLrW2t2K0N9L59b/exawAGubEWYKn/JOdXoTX0JiHHPH1nl8mkCmlZ3H68TUkipU901KpHG+u4Rh5AHWJpDfFG0MJ8X0nZtrTgMqykY4WB8Oa62l12Z9FOzLL3XkS9MVU9bW2N+na1WvkHw+2myUyxngLydbZ3FWpfWxskMhBoaSK7UHLDwOHGa2QphAoJItEk7YEQgUg3sxt5dusPG+52F03mBvHUfr3ZOtutOmOdg9vR2m0bRituW4LZykHpymOXrH1eHn0s+wDK2819Yj2nF5c9S7w4cck08+CwYYdivW7BYdgPHnSqGUfGa+c/nyKVgna3G8vybh/I5nZjHFzc64tRt0xMGrDZLOwUNLsDR0U/x9rgorWlsMxdgYPWFgMzNf+hJk7VVR5sDlyGlVT8JpH4TSJYcI/dYM7vo3mhsi08Qjy3vY81YtJq57refkAutszquTHa23yY7jyr52P79CNzpO5nsXsq6geHmxbDyvZdrKP33Wr1Jeqo61MRIokAwS4/+SYX2Xf6WMlx4OBdPXFNNXUd3wPLx9QD6ifUKR8nEk3R7vPjt3kwUlGGq9zcrzm+UEcf9EH2z3ey/wDq53rSMLw+NjRIu1dj6yAj/ufAvE90+UHMUpMHZXugdvv/PxZyGbZMGy6fj9ZcovjilDzZbBa8Jwh4N4iur7NRMrjRG+4hPx0jRTNtg+fw5GMMRQvBVEvwCjMnUkyPThJN5rG7/XgMk9RSocNhtIUJB2C+f4jlTCGQclvWmaxYe/FES45E5MO8Zxry6RQZfHj9p4hHNjDtLtqDvTh328k6EkmRykJ7ux9vKkbKdOAOBGlrgnzxxnk+tsByeoZg+AK5qQUSW3Zc/gH8DpOdVnIzyuxSDzMDV7hgThFJZLE2tzF4LoBjpZ+OI95cya9cZT75JsHLYcyJq6xmrBjeIKGgk+ToK5zd+6ry6qqVA5ubgSshWtYneG0qTiaZxgy48fvcmMX8B4MeGkqWUze6XmfMZ2VlNEKmyYWreAfJzKbYyOTIb8RJMkjPiJ/M1XVMw0ewx4X1wK5jnsTsLCu+EGNXMkxMF89Db4hQa47JM2dI5SrLVoql2Rj+8AhXBixMLm9gGq0EQ4O0xIeIRCAfu8p8co5geIzc5DzxbAPN7UEG3VmW+qN1r/W1R7Xy2+gjNBPCERvl4myctMXA196CNbtCYSwhRTyRo9d3joH4JZbTdtyBIL4mKp5NMTG6Xie0NUlkw8RoDRJqt7EyMV/4Wo3t7JaXMXIT88QzDbi6Bgi1w2zHIRvcA+sCgCyZTWjy+Dm1GiGxvrEnKEnMz7LiG2EsnGJidpUUBt5gCB8rDM9vUN8t3ybax2foMSOMTkRI5Gw4207QTJpIJg/YcHsM0vGV3VKWX2e67xUiZcnbaR+/gi81Sv/VeM2Oy2Z0lFfWy/NnbQkyE7IT6Rtl+X4KyJOYX2ClLVTYx+lVUtbCsQo0RumeXwYcnBqfIeTOsjQ8T8buwrW93mwuTTK1Wd+28tS3T5srROMDhAbDDDBLNLWF1d5CWzCIMxtjqEZnn9Q8Q69Ey8+M1cO5uR7MyT4mV9OFQDC/yuzVBNcGw4TTo8zG8zh8Qc55TKJDxbXc6qij88kkW8Y4I1fy2K9GWc9CU0sbwaCTbLS/yoDUEfNra+XCzDheYozOJrE5XTvrnprZJBuZPPnVZWK5ML2vh8hdjZLMmjQYPnrOeSA+SuFJ4vK6fiGxhcMdIBTykhldYuHAzG4Qja4TCIYIp6ZYWEmxZTVw+4P4m+6zfLFwMzOdzmFzt+FvTRfq/NYeBrw2diPwHNHpCIG5EFcuwPRykpzdQ08oQFNymqF4/oFcAwC2U0HajRTzw1U6rfWUgZptbJ7ViW5emS47gRiBMOOuFYaGIiSLaxfHY+tYZ0KEQyZTSykwfPSca4el4vquO2rUo/VcIw/g+OWT62SbCmXbNh0liQNPzyDttjgTxTfS1NPuggV3TwB3Nkr3UpWuX90xVT1tbY36NhdlNlIa62zR4AoQCjpJRbqLg9H1tncVNmtdW5ssTccIhEe4ErIwHdlgy+7CHwrRblneWf5kY3qUafcMg3Nv4ozME41nMK0G7rYu/CcaiI9OH/DEQj3tFvXHOge2o0aNtg0Mj5umjSg1V06q47w8+lj2AZQ3UkRmo+WxnqOV3pAfe3yChWIDkYwnMdsDhLpSTK/maGrtIeixwYHvdK4VR+bJ1Mz/BpH5OO0jI4STo0yvZsDwEgzWfvF3XTHqZoJE2k7bYIhTuQVSVhftwQCGtfxSMk0bJ0LjpCavspptwOUfIOhKE+2LFuvtKvFaPSeyjvJgdQ9yJexiffI807E0+SYPfpedrVSyyqDREeK5bTVj0iMeY4D8CpF3cswEByAXo39lv4OTJ74wS9xXiPlGp1fJWJvxD/oxzN3iduS+W62+RF11fYboWysMvH6OAEmuDtcxllSz7t3naNRxfG01ysdmHfXt/vnOkrWewOdvZXM1STy1icXVw5URL+npfi5WWY5vIxIhERjh3Ksm8UuRqjfUa48v1O6DPhR1189WrPbnMIyGsp+b2TSZOtLIJCtuL33yc/zJS/+G/+H//T7/5Qc/5QOsOJ5v5X/+zL/wvf/yT/x8z78fnYc7SGv3cm7GiYkVm8PA+ZwdK1uFwlwRzNhcvYyH28s/TC4xOru6OyvD7mEw3FQWTJvxec7vXNBWnIFxwifKk0lHJ5mKHXbc/0Gm9Xh4bAZnt+VXmJqIMhYMccWbYPTrfSznIDU7wbTzAj3hGbyRwowwADNxlemkh9BMkCaryf1ElNHXJijUc3niE/1MWEfoGXuTwQbYyqaIz/czulBoTm2GgcNhYi9OoDC8Ldg3ImUBpqWlFReJfd8qX7fMAqPDBiODI8wFGiC9TnR2nnhz8BCJbDA9NIp9JMjY3CBWM00iOksk4WTnSsvHmegbwhwZYHDmVexkScammY7aGXHufIn4xT76MyGCwcu82dQAW/dJRIfpm1g9+tM4+Q1m+/swB4MEwm9yrgG20kliE/1M1DtAC9XLgaWRJsPAkS2sdZO7OcqQc5zQ4Axv2yGbXGF+PoYx6Cgm4sLvd9MAnBiZo/Syz0b7C2sYpiKcH3USHgwx5ysshzI9G8MYqfHWyUyEoW6TgXM9jMwFsWOSTq0yffYSC9tvPK8oW5uxYfqGBwkFzzEXsIOZJhkb5bXR3ceIZ/vOYo4M0BN+kxGrSTYVZ2lomKnVI5+R6uV3M8LwkIPxwUFmbtixmlvcT8QY7R+lMCaWZ3VymKv2EfzhtwmY94lHpphPhHce+QXA3ODqxDu4QzMsPmfFTCdZnexjdHtBxJrbKZaXc8V9biicx0j/aOFu8CGeRz24LgDYZOnSBK3jQcZnThDtP7n38avMMkOvwcC5HsbmzmElSzoeZbh7sviyw3qkmB8axjES5NxcALvVJHs/zvLw2UIbaWvF68oRny0N6bcfnS+VI22CuZUhuVHHmrq5FJWTNy32HHkayCQ3ioPvFMpuH4QGuxh78xwNZLkfjzJ8drIwM67ZT6+v8PbsV19/k7I5eclJTnfMkqpzW/XtU4bIUDfmwCCBc5cJ2BtgK00qHmHo/MGDEwBUm1lpcWICuUySjZKRqdRCP2cZIdR7hblzYKYTREf7mNjeSD119GahjIQGA/SE/TQV67h4pJ+JqTrqzjrz2+jr5dXnrICP8Tlf2dfTb3Vz+mKcfC7GcPcwgwO9BLfzkk2ReGeU7qntF8cU6vqhXIjg4GXa7dvX6VlG66iTN2b76TMHCfpHmAkW4r10cpXZ/smdlzisTvQzOTZC75W3OccW9+MRFqJNhEqWlMsnpnitH0YGg4Tb7VjNLMnVSfouLRRfrPIArgGa6en1QGyYyD59pZploI42ttrMY2vOhHyG1MbuzZ98fIK+4Tyh4AgzgQbI3iceHaJvouIFKrXq0bqukQdw/DZvMtwNoVCQwZkAdgr19UTfxM6s5NrtLuBoJ9i+3yzaQ8ZUNdvaGvUteeITffSbIQaDl2lvKh7f6T4uLWzPpq6zvduj9rW1GRume3iQUO85LvvtNJAlGY8wNDq1u4RMPsFsdzfpwSC9vhDh3gbYypLeiDPbP8l8rf5JPe1WnbHOwe1orWPdiNvjJLVyvo5ZWXWcl+OIZT90eSusRd1XPOeFWO8+idgEfRO7L3baXB7lvGuc0OAbvD2YJRm7ytVoE+Ot++Rr+3e14sg6YtPM8hD91hChnjBvnmuAdJz5iXkawgeX9vpi1ATT5y/hGAsy/mY7ZjrB8uQs8eZQ+czR3CqTV7fwj7zJuSYKx3BoqGSCTJV4ra4Fb+soD7FRhiZHGAhcLuz/Vprk6iRnR29WmQxxlHiuoHZMetRjXNzP5RjpVwNYlyMH3xxORejvszASChB+8xxW8z4r0xPMW67srmt61L5bjRjf4q6vrs/FFoilT+DLLO3bdpc7alxT+/jmapWPD9FPyMenmZh/jlDwCjO+SU6fWSBrc2AYTWDfZx59JspbKwO43XHeWt6nZq0jdq3dB30Y6q+fnb1z3Ch/NIn7V1/hm1MbtdO4OVr+wyetfLrBxmd+9Uk+AXyAhadtNmxPfxrLk8AHlf9+aAdgjycMw/jtfn90OBz87Gc/O3SiFtcFbrz56s5SBlBYpyS9EWd5vhBEbF+CRs81bgy2VEsG1i/x8pkFclXS27b1Tj9fPbuCb+Zdxj3Vk9k+cbsMBhZv0OtM81bnaS6WLaBnoe1Qacl+nn322SOVnwfPgjd8h7Btghf7lh/QDO7C27p90dOcWditCF2h68wYs3y9b/k4lrc8GosFS9mbSi20jt3mStM0J7vrfwOrPP4ey/J7KA+jLnh4LK1j3B6H4ZPnqTVJVETk4+bj3yY9jh5AO2prY+ZWD6m+bzJR620wdWdLsezDYLFULEPr6OLajQDJvtNc/LATUmqwtc1wZzBL/8cgBqoezz1eMenDpLpePq6effZZMpnatyM/+9nP8vOf787VfSgzafOJi3z9jy/W9d3U7Bn+uNaTqnWkt9z3xyzXmT9IMdXxx0xV/Vv+kGnJ76RGDyeMFPGyt9sZuN1NbFS8EfEjzeLmwmKYlsQ0k/MrJHNWnvP0MOi1kJiOK6j9nfIYlt+PNQstXjeW9cnH6m2kIiIPhtqkjyuL24Mzl2D2w60MVpqgYtmHwOGf4c0eWJqcZjmexmxqwR/sxZldYXpdgUn9FM8dTHW9SKVH/OIwkY+JzQjdL1UuzJJituN/4fFYjrooH2f64lXODfQQfnOEBqvJVjrJ6vRZLi0ctNaqfPw8huX3Yy1P/OLXeem4syEicizUJn1c5WNDfDX2IBNULPswZJYmuGSECJ6bo9duxdzKkkq8w3DfxGM/s/XRUjx3MNX1IpUeynIHIvBRWu5ARERERERERETk4TvqcgdPPsxMiYiIiIiIiIiIiMjBNEgrIiIiIiIiIiIicow0SCsiIiIiIiIiIiJyjDRIKyIiIiIiIiIiInKMNEgrIiIiIiIiIiIicow0SCsiIiIiIiIiIiJyjDRIKyIiIiIiIiIiInKMNEgrIiIiIiIiIiIicow0SCsiIiIiIiIiIiJyjDRIKyIiIiIiIiIiInKMNEgrIiIiIiIiIiIicowOHKT94IMPHlU+RERERERERERERB5bTzzxxJHHUw8cpP3Nb37DU089daSERURERERERERERH5XPPnkk7z//vtH++1Bf3zvvfewWCxHSlhERERERERERETkd8WnP/1p3nvvvSP99sBB2l/+8pc88cQTfOYzn+HJJ7V8rYiIiIiIiIiIiMi2J554gk984hM0NDTw85//HNM0j5ROzbUMfvrTn2KxWLDZbDz11FN84hOfONKG5HfP+++/z7PPPnvc2RAREREREREREXkoPvjgA95//302NzePvNQB1DFIC5DP59nc3DzyRkRERERERERERESkOq1hICIiIiIiIiIiInKMNEgrIiIiIiIiIiIicow0SCsiIiIiIiIiIiJyjDRIKyIiIiIiIiIiInKMNEgrIiIiIiIiIiIicow0SCsiIiIiIiIiIiJyjDRIKyIiIiIiIiIiInKMNEgrIiIiIiIiIiIicow0SCsiIiIiIiIiIiJyjDRIKyIiIiIiIiIiInKMNEgrIiIiIiIiIiIicow0SCsiIiIiIiIiIiJyjDRIKyIiIiIiIiIiInKMNEgrIiIiIiIiIiIicow0SCsiIiIiIiIiIiJyjDRIKyIiIiIiIiIiInKMNEgrIiIiIiIiIiIicow0SCsiIiIiIiIiIiJyjDRIKyIiIiIiIiIiInKMNEgrIiIiIiIiIiIicow0SCsiIiIiIiIiIiJyjDRIKyIiIiIiIiIiInKMNEgrIiIiIiIiIiIicow0SCsiIiIiIiIiIiJyjDRIKyIiIiIiIiIiInKMnnowyVh4ZS5J+OWSj8wtfvrP/8jity8S/m76wWxGqvu9P2Og7zl++Nd/ze1sxd+efoGecyd579oYb/3Tw83GF//sW/T8/nd5ffZ7vPdwN3Usnn3pNYa+8T+WfPI+v/zvP+Gf7v5nlu/+C7/6sBv4w1c5f+Yplseu8YNff9jERERERERERETkcfGABmkBTMx//DZ/cf7vMQFrwx/w5c6z/Mc3/gbrf/gGY9/PP7hNiRyT93MJ3r56i3/5NcDT/Kt//TJtf/aXvJqb4m9/8HEcmhYRERERERERkYftAQ7SAls/5Z/v36cwHHufH33/xzT90Xfo6PxTvv397/K4D9P+5lNP8v/5v0D+y5/lt58uHDrr6iafifyYT/zyg2POnTwav+S97M/4WfFfP/ve29wyzvHq83/IUz/4v9EEWBEREREREREROawHO0i7xz/z/X/e4n/9whdoALLY+FLnBS50v8wffeFzWM0f88O/n+Pb5+f4rznA8m+4+H/97/zB7W/z4z/t4/QfwY2/+nf8x+9a6/vdjfP885+e5fQffQ7rT3/I4sUh3v7cWS70vcwffcHK1g9v8O3+87x9vzBcbHnuz7kwdpaTX/4DPscWP/7hDb49dJG/u199OPm97v+J/L95tuwzs7URnoCGv/lvD/dQPkBP2f+Ek984gct4lqd//R7Zf/kh7yzf5kc/2x5ifJYvnWzjhOuL2P/Vp/j1f/9v/NP3brP83dTuI/3PGHyl7Ru8ZNixPfUr/tsPbnH3/cotPYPx0jc4+dIf8vvPPMWvfvYTUt8rWRrg2Zd4beB5fnL7Pp976XmeeybFwtg1foSdL/9ZGy+7vsjnPgW//GmK733nbW7/00dzpuregdlnML7yDU6+UNjvX7/3E3703f/Md75XuiTCs3zpz9r4usvgc7Zf89/vv8t33i1N4gV6vnWSX711iWs/2t3Cs1/53xh46Sf87etvk9KIsIiIiIiIiIjIx8JDfnHY5/jCF6yYWz9lC7D9+wv8zYWXMd8+z3/42gt87a8u8+Mv/0fCF76CZec3Vv709J9jzr3G1174Bhf/MV/37758+s9Jf/sveOGFbzD0jw10XPk/uPLvv8/Fv3iBln/3Gjc4zdhYB3YAvsTZK2FOmm8z9Bcv8MLXXmNu6yTh8Bme22dvKgdodz//7IM6YA/fM3/Cq71tfPGn73Bt6nVen3mb7/36j3i1t40/LA7Z/97Jv+LVF57i//nOVV6/+J+Y+c5P+Jz3DG1ferqYyO9x8q/+kq88c5/v/O0U4alr3P3l83zd9Qyf3NnQU3zx5F9x5qWn+MHyVaZen+Jv3vkXnvX+JX/5Uslx/OTv43r+U7z71l9z8dJb/NOv4Ysn/4q2f/0ef/+3U1y8OMW1d5/ihVfb+JOn+Yh5CvuftPH1P/wVP/rej4qDtU/xxZO9/OVXniH1natMTU3xt7f+BfvJHv7yK/ad3xnf7OVV11P8cHmG8H/6a95691N85et/yKe2k34vwfdSYDz/JXZ3247LZee9xPc0QCsiIiIiIiIi8jHy8GbSWpr4t2fG6PvyFrdf+0fyQP7/PM83vtbAVjpbWPog/TZzt/s4+af/li/wXe4DYPLPNy5y4e3v76ZV1+/gx7cvM/Nfs0CWv5u7zdmO0/zjzDW+n80D32Xu7R9ypvtL/IEFsnyOL3wOfvx3t/nujwq/mXvta1zL5w69LMP20gfH6pO/z8uD47xc9Y+/JFH8f7/30gmMn3yHqf/8g+LLvd7je28t88VvvcoLX3rq/2fv/mPauvP83z8na35NMYEZPI0ngAZYaLEaT2BugS/dwt00IVJIFilklF+VmrSVwux0k45Uor0S7A+RlVahq21ys7tEaodEakgjhZHyg+gb02QvbssF5i6w0LXbWOBugHHmKrMKAAAgAElEQVRSMwOxaY3Bm7l/AAkQ8qsBnLSvh1QVH5/z+Xzs/PjkvM7nvA+unhDXbEd42w6jY5NJ4KjzMu2eHApTTeDsx5BRRG6ih8vvXKBnBGCEkQsNJKRVsH66y+gsCnOj6T5+gpb+qW09FzhlTObN3FxWtNi4BjDhx9nYQOf0PhiIT4gl5HXg7B9hDHDbj/OPLSFCj0EwGWHM45W/y5l6EUEEAa5+copG59Qa2egsCnMnA1qbc/IbHhm5wIkYM28Vv0RWyymchlUU5kTjajiBbeq4kc4GLpjfojx3uqcxnO0uSstyyIruoXMMWJFDTuII3R/0IyIiIiIiIiIi3x4LmC5GEVV8mM/6Dt/e5OvFVr2H6ib/1IZxMOWzc0ceq9OTMCUlkZ6eTtRAFFEzWvINeue0/SDHBe84LhgMEgyOz3pN1NQx463U1Tk4tr8R+8ZWOlvbsDfZONfm52F9L/A/D33MwvPS9v77tMz96mJyKLuV/EVjNpuISS3lzcqSGTsZMMREMJQQC1PVVg3JqyjMSMacYCI+wYTZHMGYZ/K3S6zZhGHkCn0jMzsawX11mAnT1EtTMuaYBDJeqcQ6czdDDBGhERJgMqRlDH9g5g4hXC3tjOzcxltv5uLu68fl6sbhvMbjUOxg8sFhl/AAYMBotlJYspNy4ymOnHIyZkrFbPDSMqc0w2ifiyFDDsnx4IxJxoQXu3ts1j4edz+B3Nt/JEOuDpyhnVizYunsHGVFjoV4TzvtQ4v/OUVEREREREREZOksYEgbJNh6iO3VzQQBgj4G+gaZGXmm7ajjZJWFAds5muznOT/QS7DwAEfnX/75yMfd2zhdtWW8aMujqKiQwrx17Du2j322CrbvO8/gPEdEdo3MW/IgsnNknr2X2ESIMe8QQ3MDvOgRQjNrxRomCDgbOHJx7mrMEKHRUSCarLI32Jrhx9ntxN3twusdxlxSTuFDDcgAEx5ajr9P+5zcOxQaY2z+gwAYc1/gyNvtpGZkkpGZSnZpORvWt3O89gLuex24JAKMDg0x/TUPDV2jf8zIWzsLscY6aX+Ilu77hy/kot0xyms5FmI7PeRY4um3d/MY/G4TEREREREREZEFtLD36fsGcDiddykXkEj+xnyw7WX7vqapfSIp3GiatYp24Y67HyNpq9MJOto4X9fG+Towbqzlo5rdFCeep26e1Yqxdf/N6G6YeMbIH2P+BIColt/z1KmBRxrJ0hnD4xkhJjMZ40gPt2PaeFIzEhgeHQVSsWbF4j7zDqd6pusLJJJhjICpVbqjHi9j8amkxcO1W4lhIqkpCURMr4r1uvFixZwYYqT/9qrS6BUZmEP9uO+xLDY6fgWxoWu4e4Zw97RAdC6v/fUGClJtuJ2PQc2DOUJ+P2OYiY4GvG48ISsZGbG0dN7+kPFpGSSGPFwaAUb78TJ3HwPmjGRiptboTutvdzBSno111Qos0W4udT8O64lFRERERERERGQhLWExVR8DAz7i8svYWThA80AU6UXl7C+OuxX+Lexx95G4iapjVSTZKqmsbWUgKp1NZdlEeZvp9c1/yJ8EbrL8X92P0Gn4XbM3cyWnlK07RzhzyYE3lEBqUSmlWX4uHHmP9hEvwyOQk5NLhnfq/YJicmYsIA65LtHieYM1L/8FgTMtuAMxpBZsIDc2wMR0SDvm5HL7S7xWspMNoQu09/sxmHMpKS0gwXGcd866mT9ujSdnazlraKHhTDv9Y9GYraswM0S793EIaGOITYwnPgRgIDohmdziXOJH2rkyBODE3l4043MHiEkuYENxMh77EZwhINTD5fYiXivZSvGYjXZPgITMlyjJNDAxt7tr7XQM5bKm1ATuBnrCvpJYREREREREREQW2hKGtOPYq/dwsOYA5UcbqcJHb+sJ6s4lUZW/GMfdx1A9FXtXUrN/P8c+NBEV9NHbaaNyTyX2h31y2JNktJMTtSGKS16irLwYIyGGPS5sx8/QPgIwxOUPGoguXc/W8hIMoWH6Oy7R0W8m51YjQ9iPHydUWsL61/Iw4udqRyNnOorYmTy9T4j+C+9yfKSE4vWvkJsQA34v7u5TvGu7W0ALMELLqVPEl66ntLwIY8QEfo+b9hPvY3sMarFGGK1s+9XtKrsTgWGG3O2cODX1IDRC9NuOcXxs+nMbCA17cNreo/FWMdnJ7+ZEqIyS0tcoMoYY7mvnTGOA0q3GOT0O0d3hYU1JAj3trnt8byIiIiIiIiIi8qT6Xmpq6h/DPQgRubvY3Nd4q9DLe2+fZW4lYRERERERERERefIsX76cGzdu3Hq9hCtpReShxMazwpTJS4XJDLWfUUArIiIiIiIiIvItpZBW5DGVuuZ1XskxMOQ8wwf2x6DWg4iIiIiIiIiILAqVOxARERERERERERFZQnPLHSwL41hEREREREREREREvvMU0oqIiIiIiIiIiIiEkUJaERERERERERERkTBSSCsiIiIiIiIiIiISRgppRURERERERERERMJIIa2IiIiIiIiIiIhIGCmkFREREREREREREQkjhbQiIiIiIiIiIiIiYWRYiEb2ZXx/IZp5oh1yfR3uIYiIiIiIiIiIiMgTaGFC2szYhWjmiaaQVkRERERERERERL4JlTsQERERERERERERCaMFWUmb1vjlQjQjIiIiIiIiIiIi8p2jlbQiIiIiIiIiIiIiYaSQVkRERERERERERCSMFNKKiIiIiIiIiIiIhJFCWhEREREREREREZEwUkgrIiIiIiIiIiIiEkYKaUVERERERERERETCSCGtiIiIiIiIiIiISBgppBUREREREREREREJI4W0IiIiIiIiIiIiImGkkFZEREREREREREQkjBTSioiIiIiIiIiIiISRQloRERERERERERGRMFJIKyIiIiIiIiIiIhJGhoVtLZ6M3JcozM3AHG/EEPIz0u+g3X6ZFvfogna1sAyseuXv2ZY5e+uE34O7+xJnbE5GQuEZmYiIiIiIiIiIiHy7/UlCQsLfLUhLhhUUvlbOludTSIgcZ8RzndE/GvlByk94Nuf/IHXMQU//19xckM4W2jKeXv3nPPdDGO7rxtV/neu//4qIH6aQkmbF+kMP/99/DaGcVkRERERERERERB5VdHQ0wWDw1usFW0m7Ys021qfEMOH5hBPHLuCaWjgbm/EXvL4zj7TibRRcOYJ9aKF6XAwTeFoaOOWcimMTC9jzRgkpWYXkxDppeZwXA4uIiIiIiIiIiMgTaWFCWkMGL+SYAC8tp28HtACjrrM0tGdS/oKZ3IJk7Gf7IWMrlbusxFz5gL893jO5QjU6l9eqSknzt/HuP57FDRCdTEFJMblZyZgM4B9x42i+iK3zGmNwqx0cjdhCORRnJeK98G90rvoFpWkhut//x9uB64pi3vyrIkzDn1D79gX6H+RzDTlwDpWQYk7AbAJGITo5l5LiArKSTcQQYHjITffFRmyuESCegj0VlKR4+ORMH+bCXNIMPbz7jw24DfFkrSnhpZxUzEYDAf8IHlcLjY3tXBu7/VlC3We4GMrmpVVmYkOjuNsbONNt4qXSQlaZE2D0Kh2NpzjrHJkcY3QyBaUbKMgwkxATMVmioWOqRMOC/OKKiIiIiIiIiIjIYlqYB4fFmzEbgeE+nNfufLvf5cYPJJiTiX3QNg3JbCh/jZIcEwFXO80t7fSHksnb8jo7c+Nn7RqTUUxxcgBXTw893hs4OtxMEEOGNfVWCp2YmYkJ8HZ3PFhAC4CR2GiAEBMhID6Xna+VkpMM/R3NXGx3MRZvoWjnyxQmzjwukdxiKzFeJx3dV/BjIHXD67xcZCF22EnzxRa6vQbSckp5vTSL6Jk9Zq2hKH4IR4ebUUMCmUU7eWNXIfFDDjpcHkIJKeRtLSU7FiCW7K2vUGI1E3K30Nh4kY7hWDKLtvLy7AGJiIiIiIiIiIjIY2phVtLGxE4GjWMjBOZ73x9gDDBO7fcgVQNiV60h1xSBp7mW9y5P1Uho6Wfrm9uwFBawov0Ct/Lg0Q5OvHMW93TR2OgOXIFMLKlWUg0uXKF4LFYz4KGjY54UeT6GeFILislJAPxuejyA4Qq2E+8TO+bG2T8GQL8hldfzzGSkxc4q5dBvq+W99um1rAbG2ht43w0ep3vyIWQdI5j+r1LSUjMw45xcOQww1ML779kZAnpCb1H+QgJjjuO8d7YfiGdoTwUlKWbSTNA5moDZFAN4cFy6TMu1ELQ76Ek1EvKqNoOIiIiIiIiIiMiTYGFC2sDoZPmB6Hhi5nvfGDMZ4gZGH/jhW6Y0MxGAueiv+PuiOW8aEjAZuB3Set30z2x4zEmHO4DFkkFWMriGLWSZgasddN+zJm4Elpf/nn+YuWnCS1vDxckAODSCd9iM2VLM1kIT8QkJmMzGySEZZn6VI3iuziw2EGJ0yMuoyUpBaQGm+AQSTImYAAwRs38R/MO3yhT4RyeDYP+Qf2rLKIGx6e8AwENPt4fcIjNFf/XXWD0ePFf7cTnb6RgZQ0RERERERERERB5/CxPSjnjw+MGckEZWIvQPGVhRsJWSrBA9jWfwZKViBIY9/Q9dJ/Vq87tccM6NdgN475n2hnC1u/BbrGSuSib+2irMTNDX2X3f/oevdOAenWBiAsaG+nE5enCPTHYWnbWVN162khDwcMXZh7ujg57UlyixJNyn1RUUvvY661MMDF91csXdjbMjluwtL5BynyPvLUS/rZZ3XKuwZmWSmmwmNacIS14BBZ+8x5EL/Q8ciouIiIiIiIiIiEh4LExIG3LR3u0l5wUTBds24Dp2AXdHOyMFuyjdlcxwdAJMeGhvmaoGGwpMhocJZuLpYQgwJCdPriyd4u33MpFjJCEhGm+/c3KlrmEF2QWZxAy78d6nsGzI3Y7LbyUns4CXzGYiJtx0OO5XAmACT/sZGu4IhSclWzNIIED3qVpOuUKAgYzk9ff/fuIzsabEgOci7x61TwbF8YVk3//IezPEk5qViskwQseFU9gBQ/Jf8GZ5HibLKswX+h+i/q6IiIiIiIiIiIiEw8KEtEC/rYGLya+wPuUFXn/LisczDIYJMCaQQICrjadpmS414HHhDuRhNRXw+p4EXCPRJCcnzxrMaMdlOgrSyLNupTy6A4cnREJmDlZzDMNt79Lec58Bhdy0O4bJybOSkwCBKx04H7FMq394FDCRumYDBQnXMKzIJjcr+r7HMTbMcADMiTmUFI/hGo0nIzcX86MNB0LRZLxUSpEpRG5mO939YMqykAD4+914H7V9ERERERERERERWXTLFqylUD/2947w/sVu+kYg3pyCOXoMr2eYAAYiYmfsO+bkzImLXPGGiE7JIssMHWdsuCdmtufm7LvvcrHbgyE5h6KiF8iIHsHRfIx3z7of6Db+/nYHwwAEcLdPrcZ9BNcuf8CZ7qtgzqNkQzE5CU4utd+zyO2ksR7OnGrmykgsGUWlbChMZaz5Ms55n7L2UCPCduwEzY4RojMKWF9SQJZplCuffMC7DY/+eUVERERERERERGTxfS81NfWPi9tFPNmvvMGWzFE+efcIF9xLWCU1voA9FSWk+Ls59vYpXCrQKiIiIiIiIiIiImG2fPlybty4cev1gpU7uLsROo8foHPxO5ohmdyyArKSM0gBvN0tCmhFRERERERERETksbQEIW0YrMgid5UVM36udpymwabHZ4mIiIiIiIiIiMjjaQnKHYiIiIiIiIiIiIjItLnlDhbuwWEiIiIiIiIiIiIi8tAU0oqIiIiIiIiIiIiEkUJaERERERERERERkTBSSCsiIiIiIiIiIiISRgppRURERERERERERMJIIa2IiIiIiIiIiIhIGCmkFREREREREREREQkjhbQiIiIiIiIiIiIiYaSQVkRERERERERERCSMFNKKiIiIiIiIiIiIhJFCWhEREREREREREZEwMixfvjzcYxARERERERERERH5zjLcuHEj3GNYUMuXL+fb9plEROS7TXObiIh8m2heE5Hvkif177wnddxPkrkLZ1XuQERERERERERERCSMFNKKiIiIiIiIiIiIhJFCWhEREREREREREZEwUkgrIiIiIiIiIiIiEkYKaUVERERERERERETCSCGtiIiIiIiIiIiISBgppBUREREREREREREJI4W0IiIiIiIiIiIiImGkkFZEREREREREREQkjBTSioiIiIiIiIiIiISRQloRERERERERERGRMFJIKyIiIiIiIiIiIhJGCmlFRERERERERERE7iqR1WXllG/MwrhIPRgWqd0nhIFVr/w92zIncLx/gBPO0NT2RHJfK6c0LQb/ldPUHu+Egj1UlKTM38yVD/jbE6NsePN18hICXPngHY73jM7YIZHCPW+wPgU8F49wxD602B9MRES+k2LJfuUttmRG4LlYwxH7yOy34wvYU1FCysRVGt85SsvI5DG5r71FaVoETPRx5u33aJ85hd11rpxhxQbe/KsXMHku8s9H7Myc5QxZO6l82ULElQ/42+M9hKb3nW/4gQ6OHWjA9YjfgoiIfJtMz0Mzt00QGPbgdrRz6XIn18amt2dQVrmLnJj52vHyyf/9DheuTb6KTs6leE0uluREjDHg93pwd1zmot3FrNnTEE9G7ksU5mZgjjdiCPkZ8bhot1+ixTW953z9TuD39uNqsdHY3s8YzDNf3v04R/MZLnQOESKVsr9+nZx7JQJT7YWmzlmH22p5+2z/7fdjU8ldU0huZjKJsQZCYyN43B20XGzBOTI9r9+e769ePMLRWeesD/BvARGRWyIpq/uMmqLZW4O+ARy2Wqqr6+nyP2hbaZSf/5D9lgFObF5LVe8W6v/zAPm+c+zJ3UfT+Dcby7TOg2spq+2b/83E3dS3V5HvPc2uF/djT9rCgZr9WIKF+Jp3UP/An+HBfcdD2vlEk1G2i9K0GCY8zZw40ckIED/17oT3Ck7P2KwjQu4RQqF+bI0OLC9byFy/hlTnWdxTc1f0qvUUpkTAcBtnWhTQiojIYhnF2e1mIjMTc5aVeLt91olmvGUVKcBEfyfd02/EWliVHDH5c0Qy2dZ42lvmhLuLIeDB4fIy8zQvFOhjePF7FhGRJ5T/qoP+UTAYYklINmN5YQsZljRO1TbgnHWB0c/VbvfssDU0jHvqNM6Q+heUv5KHKSKAt89Nf8iAKTkN6/pdpJrf551TzslQ1bCCwtdeZ31KDEz48Q5dJRRtIjEth5K0LDLO1HK8fWj+fqPjSU1NI6f0NRINRzh6z/PAmceZSM1MI29LOQkc4XinnyvdHRiMk6fu0eYsMk0R+D0O3N7JWTTk8TDGXU7uE3N55fVSMo1AYBiPx48hwUyadT1pGVaaj9di6585G0eQsqaMwitHsV+7zy+IiMh9DLSeo3UgCFEmLPlFZG85wLG4IGvLG1jqdGyg8xydA3O2OXwP3kDfaaorjWQHmzjnB0hkd0M7VdleTu96kf32+ybG96WQdhYDiQU72ZqTAH4HDcds9M+5SDjad5lTM69KzjDmbORyXwalaTkU57ZMTsSGZNastxCDn+7GO9sTERFZSGPODtwTmWSmZGGJt3M7b43FssoMTNDf4WD6XDbemk1yBAS8XjCZSFllIb6lhUWPaUe6uXjKvuT/OBMRkSfVBP32U7dXcRriWVX2OtusOZSVOnj7xFSwCoCXzjOnaB+br51oVhXmYIqYoO/MEd5rn5rxYlex841tWKyFWBudtI/CijXbWJ8Sw4SnjRPHzuIaBTAQn1XKrq05ZG4oJdcx8w6U2f1GZ2zlzV1WUgoKSG45y/xnkXceF5v9Cm9uySSzKJcVnTZ6LjTQM7Vn8oa3yDQlMNzRyKk5F1XjmSuegrINZBphuPsD3m3oYXLhbDSpxa+wsyiFoq0bcL5zdvZ5akQKa7YUc6XWxjWdv4rINxbEUV/B/vNT4WVWBecbf4GlaCNFxgYaFmEl6j3HUlfBvvOPEqQO0VZfQ9uCjelOqkk7Q2xGKbtK0ogJXOXisVPMqljwQEZob2zBSwQpa9azKhriczeQmwATfZe56Jz3XwkiIiILZ8xFhysApLDKMuN0LdbCKnMETLjpuLXcKB7LqhQiCOC6eBGnH0jJwZoYhnGLiIg8jNAIPWcu4ghATEYB1tgHPdBARHTEdCO3N4/2cOqdaqqrj9MxChgyeCHHBHhpOT0d0E4eM+I8Q2N7H1c9EG+6+7qnMfcVPACxCcQ/xPKoUWf3ZKAbb+Iezd/figJyUyLA30HDrYAWYAy37RR2D5BgpSBjdid+v58IcwFb1iRrVZfIY2DlypXs2rWLtWvXztpuNBrZvHkzmzdvxmicXRNl3bp17Nq1i5UrVy7lUO9toA9vcOrnIGDcQX1fH31dh1gXOb1TFhVNffT1NVGR9SCNGsmraKCrr4+uhgryvnGx2EjSNlZS19SGs89JV1MdFfmJRM3qasZ4Y/M4aG+nKhvAxJZjn9HXVMnqb9r9FIW0UwzJBezcmkMCw3Q3nMD+TS8ZXrtMY8cwxFhYX7qBksIUIiY8tDS2L/6qJBEREcZwdrgJwOSq2KmtsZZVTGa0Hdy6ZhhvJScFCLjodrnodvkBM1aLUloREXkCjLlweYAIE8nzFjufzyhXOvsIEEFa6Zu8+UoZxbmrSE2MJjQ2xtjY2GR0G2/GbASG+3Decdt/CNeF9zh69D1s7rufNxqS0yZrsI8NM/owp5fRxsmH0oRChB5hJWt0ihkTEHA75rmjc4QrV7xADObUmfP+BP0Xz9AxHIG5oIziZMW0IuGUlZVFY2MjP//5z/mnf/onDh48CEwGtCdPnuRXv/oVv/rVrzh58uStoLampoa3336bn//85zQ2NpKV9UBp56KIikti5cqVrMzKY8eBcvKjgvSersP26JUBgEiydh/l6C+yieo9QcWeGtq+4ercyLwqjh5+laJ06LWdw+aIYlPVTix3O2B8gPN1v6Z5AMCH4/S/cbCuiYG77f+A9DcuABFkFq2f+tnArCuqcyTklfMPeTO3zC2eHsJ18SJXsraRaX2BBGC4o5HLqucjIiJLJOTqwBWwYE1ZhSW+hZaRWCyrkokggKPDdet20ESrFTMQcHfjCoWg200gx4o5J4cVdhuLOnWZ1/Orf1g/a9MdDzoRERG5pxCBsQkgmujomae2aZRW/QOlM3ed8XDLkfbjvDuxgZKXrKRl5lCUmUMRE/ivdtDYcIGeoRDExBINMDZC4IHHYyK7tIzkEBiiE0nOSCGBCTwd7bgfsAVDbDI5JQVT87PjgY+bz/R3MhYYnfcMd2x08pNFx8x50tqYi8YzHaTuyuGFsmJ6jtgeYRQi8ijefPNNmpqaqKioYOXKlXz00UccOnSI4uJili9fzosvvgjARx99RHFxMQ6Hg7KyMl588UUGBwepqanh1VdfpaKiIgyjj6LowId8dOt1kIHmX1N5yM5CVDowbTpMVVU+cQM2KnZV0XTPOmpRFB/+jL7DM7e1Up27g7ohI8W7N5EOOP5tF5trnIwDK3fU03ggf/Zq2lsGsdfVkr7xVYqSgjjOH6JWNWkXkp++bi9maxrW0jIc/SfmLXdwx4PDQgGuDM8tXNtD4+UCUktSiAg4uHjRfY/YV0REZIGFXHS7AlitkyUPWrozJx8OFnDRcWsZbSI5OWYggLt7ap5yd+MKWLGaLOSssN16AvaiuOPBYSH87iUtTCUiIk+8aGKiIwA/Y2Mzz7jufHDY9MO1pl5xrfMs73WeJTo+mdTMVVhzrVhT8tj2egyhd07hDIxO7h8dz5wI8x6MpFhzSLn1OsDV5hOcsN1vQr0zVJ4Y7uZMYw+PUjBv+juJjomddylSdOzkJxsL3BlDj7nO0NCWyut5L7B1gwv7I4xDRBbHH//4x3AP4T6CdP66grougChMeTso3/kLTv4mib2b93E+eL/j7yGumKqaKKLwYTtYQcPg/Q+588FhTnqDAEmsTo8Demlt6mU6ah20NdF7IJ/sRxjmw1JIO8X7yQmOXxgmy/AG2ywWSsuy6T/eeUeJgns9OGymoX4Po6SQ4HXT/9C1bUVERB5FCFeHC7/VinmVheRQ1uTDwZwduKbP0FbkYDEBxGDZVsU/bJt5vAlLTjIXLjzgqtZQaPLEb54TWUN0NAATc+/X1IPDRETkUUWnkmEGJrz0eWa+ca8Hh8WTnGUmNuTF7RpibKQfZ3s/zvYWPG9UsN6cgTUZnG4PHj+YE9LIWgH9s3JWA6mFWylMBbf9FPZby137OFP9Hu1jsax65U22ZcYQQ4D7nw766etwMTIxwQQhRvpddPe4ZtSQ/WbGrnrwkoYp2UKywcnsygzxZKaagABe93yzcQj3hQba0l4nL6+MNbqOKhIW77zzDh988AFZWVkkJSXR0NDA4OAgp0+fZsuWLdjtk5dQfD4fNpsNv99PQ0MDjY2NDAwMkJyczLZt2+7Ty+Lxdtk4P/2wrvM2fEkfUVNUzO5NKzl/+lFajiI44IUkE0X79pPXXHWfUgcP8uCwqNmrZudfQruoVJMWgAm8bg8hRulpOEO3H2IySyjLvfP5mCIiIk+CkLsDlx8iUnIpLUgmAj+uDhe3M1rLZJ06j4O2trbb/3V7CAAJlmySH7SzETceP5BgZU1u4u0rwNGpFBclE8EEHrdHd5WIiMjCMSSSXbYeSwz4nS08+DOaTRSUvczLu15mzcx6q9EJmCbrGxAYA0Iu2ru9k/tv2UDqjAeTxWZsoHSNhcxUA37vfLPbKD2NdjwTYMotIfe+DzXz0tPYQMPZs5w9ewF756MHtABca6H96gQkrKK0NIvbZ7fRJBdupTAFGO6mxXWXzkJuLjR8ghcjxm/8MB4ReRROp5MNGzbQ0NBARUXFrbIFfr+fbdu2cejQIQ4dOsS2bdvw+ydTyun9Ghoa2LBhA06nM5wfYYY4oqKigKjJ/wd9+IJAVBJJ03XFV2ZPLSS5D5+NypLtVCx6940AACAASURBVLf6iErfSc2BdXzzp2oM0NXrA5LI32hh+hlmK4vX3b0m7bRHWQ08D62knWvMyZmGbpJ3WUnbsJWCvqO0zLiwGJu2hq1bZ/8LINTfzpkWlTQQEZHHSMhNh8tPTo4Jswnw99BxawlNMjmWydUzrounODvz5MyQSkTq6+QkZJKdCv23VgdNPkBkq3VmHx46Gu24xlxcuuggY4uFzNI3+OsCD55ABAlmMwkRMOH5hAvtc+5Nibeyfqt51twZCrj55Gz74tbCFRGRJ1QEyYU72ZkzeZeGyZxCQgxMeDs40+icUxbARHbpVlJnbgr5cVy6QM+Ii2a7h6z1Zl4o/2sy+/rxjhlISE7GbISJqy20TN1I0m9roDn5FYpSXuD1t6x4PcMEYhIwm4xE4OfKmUY677ZMdqidi84CdlnTWLM+g44GVxjOF0doabhAxuulZOa8zJsZXjzDASKMZsyTEzSfNNi4x7PPCPXbaGjO5LUiExFLN3ARmWFwcJC6uro7tk+vmp1PU1PTYg/rAURh2V3DoXWTP5vSs8m2REGwk/O2PhgPYu8MUpyfzf6T9axu9ZGUn036A61gDRIM9lFfUU3hb2oo3nSAGruD3XetezBzLLcNnD9ITdMgtrpz9BbvJP3VY/wm3YYjmE5+djpB7rWg1seA1weYKK46SpStjsqaR6u3q5B2HmOuM5zpSGZXTgrFZYX0HbXfmvQjTJlY56b6sW4aFdKKiMhjJYS7w8FwTh4JgN/VcfskLDkbSwLgd84IbqcPc9PuGCYnLwFLTioX3LdLHiSkWUmYtbMJzyU7rjEY6TzBkdFC1hfmkGE2k2aCwPBVHI52Ll3u5NrcSTLGjMVqnr1twoDjQvud+4qIiADGlMypVU0Tk3NMRwuXLvdw7Y5VtEZSrNYZtWEBhgl0XKBnBK7Z36XWv4b1L1hITs7EFDFBYHiIK598wsXLnbdL8YT6sb1XS3/BSxTkpGI2pxAf8jPS10GH/RJ219zieDON4bp4mb6sUtJWraegOUx1XYfaOX7ES8GaQnIsyZhT4gn5R7ja7cB+6TLOoftNuiH6L39AS2Y5Reb77CoiMkdS9iaSpou6Bn0MdJ6j/mA1tX0Ag9RXVJB1eD9bsvMpLnLQXFdN67rD/OJBC8EONlBZmYfl6BaKqg6z27GdOuf8JQ1mjWVK70AtNU2DjLdVs2dvkAP7tpBdtImkgVZOVB4i+2gV+XftfJymg5WcMO1nU34RxcW91B+y0/YIzw/7Xmpq6uNeafihLF++nBs3boR7GCIiIgtGc5uIiHybaF4Tke+SJ/XvvCd13E+Sud+xatKKiIiIiIiIiIiIhJFCWhEREREREREREZEwUkgrIiIiIiIiIiIiEkYKaUVERERERERERETCSCGtiIiIiIiIiIiISBgppBUREREREREREREJI4W0IiIiIiIiIiIiImGkkFZEREREREREREQkjBTSioiIiIiIiIiIiISRQloRERERERERERGRMFJIKyIiIiIiIiIiIhJGCmlFREREREREREREwkghrYiIiIiIiIiIiEgYKaQVERERERERERERCaPvrV69+o/hHoSIiIiIiIiIiIjId8mNGzdu/WyY+eLbYPny5XzbPpOIiHy3aW4TEZFvE81rIiIik/PhTCp3ICIiIiIiIiIiIhJGCmlFREREREREREREwkghrYiIiIiIiIiIiEgYKaQVERERERERERERCSOFtCIiIiIiIiIiIiJhpJBWREREREREREREJIwU0oqIiIiIiIiIiIiEkUJaERERERERERERkTAyLGVnTz31FM8++ywmk4llyx4uH7558yZffvkln332GV9//fUijVBERERERERERERkaS1ZSPvUU0+xdu1afvnLX/KjH/2IuLi4hzre5/Nx/fp1/uVf/oUPP/xQQa2IiIiIiIiIiIh8KyxJuYOnnnqKl156iX/+53/mT//0Tx86oAWIi4sjIyODd955h7Vr1/L9739/EUYqIiIiIiIiIiIisrSWJKR99tln+eUvf7lg7f3lX/4lzz777IK1JyIiIiIiIiIiIhIuSxLSmkwmnn766QVr7+mnn+ZHP/rRgrUnIiIiIiIiIiIiEi5LEtIuW7bsG5U4uJvly5c/9IPHFp1xI4faumiqziMy3GO5i8i8auxdbRzaaAz3UEREZNEZWb3jIA32Lpx9TrrsDRzancfcGSCxsILa8204nU6cbU3UVaxj5dymVq6jovY8bU4nfc42muoq2Zh299kubXc9XX192B9qTjSyeveh2+Ntqqd6Y9o9j1+8fiJZWVhBnd1Jn7OWjY/rxC4iIiIiIt8aj1nSOZvP56OkpIS0tDROnz4d7uHcW7AXu62Z5rYBxsM9lrsYH2jD1mzD3hsM91BERGSRrSw7zNGqbAZq97K5ZDt7a3tJ33eUozvSbu0TmVXOsaM7SXIcZNfmzew62ErczsMcrVx9O7SMzKPy2GG2xDVTvX0zJbuqsUVtouZYFXnzhZeJG9lfns3DXppN23GYY/uz8dZNjrfSBsU1xzhQeJcLi4vVT2QaZQd/Q+PRTUR5vQ/ZuoiIiIiIyDdjCPcA7sbn87F9+3acTicA1dXVbNmyJcyjuodxJw1V+8I9insbPM+BfefDPQoREVl0K9m0I5/guV1U1LcxDjidDnxZ+ZwsK2ZlfS2DGCneV0664xAl+xvoA3BWsTcqnQ/372NT7W4ahiCyaAebkjqp3V7D+SEAJ849UVja97OjqJq2ppmXJo0U7t9Pkfc0pwe2kP+gw43MY3d5Pt4T29lb1zU13j2Q/iE1+3ZSa6+dHN9S9GMqYmO6g+rN1diyj9JuedDGRUREREREvrnHciXt3IAWoKysbBF7NJK14yD1TW10OftwdtlpOLSbvOnFO5GrqbY7qS9fR0Vd06x9Vs/Zp2H3HTeJzpFFRZOTtoOFs26tjMyrxt7XROXqqRFllVFd30Sb04mzq42m+mrKsqaPiGTdoS666ioor53cp2nqwMi0jVPH9dHn7MLeUH37ltS0cs47b/cBkaRtrKRu+jbXribqD+64/Zmm+6ndTVl1A/YuJ33OLprqKihM/GbftIiILAUv5yq3s+dg5+y7O4JAFEQBRGazLjsKx/lzswLQwXPnaY3KZl3+5Nwx3nqIPdsrOT00t4+oO3qNXL2Pqk1BTlfX4bzj3XuwrCPfNICtoWvGeP3YGloJWgrJnzPnLGo/gyfYU7afBqf/YVoWERERERF5JI9dSDtfQLt3717+5m/+ZtH6NK6r4lhVEcGGSravzWXtrkMMZO+npmpmkBpFdvl+0psqWPvTZ8ndfhBH+j6OHd1xZ+2+e3LS0OAgrmgj+bfvJSW/rAiTw0Z9F7CyjMPHqsjurWXv5rWs3V5Bva+IA0cPsG7GXZ9x+ZvI6z3IrrUvsvmQA8hi3+EaioMNVGzOJXftHup8xdTU7CTtzoFgXHeAYzWboLmS7SUlbN5bhze7imNHd8zaP65oNxsHD7H9xZ/y083V9Kb/gpqqdY9t7V0RERln0NmFc2hGRJtYzO5NJnqbmydD2bh0kuJ89Pb6Zh8a7GXAG0VSUtLka38fXV193I4sI8kq302+r5Wm1pkRcBqvVu0kznaQg20PV1YnMimJJAZw9s75FL1OBkgiK2nmjLPY/Yw/tmWLRERERETk22vJQ1qHw8GePXtwOBx3vDdfQHvw4EHefPPNRR2Tv6mSkrUl7Kltwjk4xGBXA3W2AUyWPJJm7BdsPURFfRdD4+P4neeprjyNN3s3u1fftel59Z07T2dcEWVFUyedkflsLDLhaKinD1i9u5z83oPsqWqgzTnIoNNO3d5qbFHF7Ci+ndIGHXVU1kyO2e8fh0gTSSYYaLNhdw4xNNhG3Z61/LSsbs5togBp7CzfRJStkr01TXT19eG011NRcQJvfjm7ZxYa7K2nutbOoH8cv7OBg/UO4rLzsCilFRF5MkRmsfvwAYp9J6g+NDXHxkURRZDg3Jxz3IcvCFHGO1fKAiSuO8DhV020Hqzm/IzFpivLqihP7+TQwSYedg1qVFwcBH3cEbn6ggSJImpG4dml6kdERERERGQpLXlN2j179jA4OEhraysnT57EYpks9na3gHZp6tCOgymfnTvyWJ2ehCkpifT0dKIGombczBmkt8sx64Rw3NGGI7iT9HQjzMmcI/OqaTy2k/So28d7z+3lxX1NjA+eo6F1H1VlxRibzhMsKqMorpND5wYBIxZLOlHZVTR27Z/RYhRRcVH0piUBU0uAfD5mPdJkvJW6OgfH9jdi39hKZ2sb9iYb59rmOY2NtLA6HRz1rXM+UxOd3p1YLCZom2w96PUyMGMfn88HxM1zo6uIiDx+VrKx5ij70zup3n6QtullotPB5Ny/zCPjiIuCoP/OVarG1RUcrdkEp/ewt2Fwxhvr2L8/n4HazdQP3nHYVLvrOPTRYTaZZsysvb9me8kBHD4fREXdOa/MDZIfoJ97zb/BB+1HRERERERkiS15SGs0Tq4E9fv9bN++nZMnT5KUlBTGgBbSdtRxssrCgO0cTfbznB/oJVh4gKNFs/e7M5Sc50RvynjnIfZsrp/9vm9g6hbKIWwNrVQd2EiRsRnKiohqruTc0HQvQXzNlWw+2Dmn1SDBez5pepyu2jJetOVRVFRIYd469h3bxz5bBdv3nedu580iIvJtlUhh9TFqirz8etde6vtm3MjvG2DAF0dSehzYZxScjUonyRRkYGBgVkuRaTs4fPRVTM0VbK+yzyp/kLd/P8XB0+z69T0qxI63cnDXZmpnbgt66R0HBgYYoIisdDg/o4nI9CySGKC+d/yB+7nX/Bv5QP2IiIiIiIgsvSUPaT/44AO2bdvGZ599ht/vZ+PGjXfss5QBLUD+xnyw7WX7vqapEDWSwo2mOQFsFOmF+ays7bsVdkbmF2KJG8DWO89K1fEh+px3PGXlFr+tgeaqGsq2bCKYH6S5wjZ1wuvD0eslrmg1poGG2yueItMoLEpiwDsId60GayRtdTpBRxvn69o4XwfGjbV8VLOb4sTz1M0an4OuXthdmI+x4fYto5GWdWSbvLQ67hUGi4jI4y+S1eVHObwlyOk9e6jpmjNXjbfS1BmkZuMm0upul8VZuWkj+XRSPbPe7MqN1ByrwuKoZnvFnIt+kdlsLEonKimdk5/tnN1H9kk+29JMxU930zDuZ9DpnP+CocNOp28nxWWrOXRg+qFeRorL8onqraN16GH6ufv8O/4g/YiIiIiIiITBkoe0cXFxs4LamYxGIzU1NRQXFy/pmAYGfMTll7GzcIDmgSjSi8rZXxwHc3LKoGU3NZU+DtY7CKYXs69qE3HN1dR1cffc9G7Gm6m3+Ti2bz/4bOxpnj4ZHqertpbmTVXUHB2k+pCN3mAS+eVVVBX5OLi5jL67FeFL3ETVsSqSbJVU1rYyEJXOprJsorzN9E5WKJihjxO159hx+ABHK6I42OAgmFREedVOTK3V1LWNf4MPJSIij4dI0nYc5ej+dBz/VkGDL4nVq6errPvo7erDjx9b7QnKT+7j8MEgB+s7CabvoGp/NgMndnF6OrA0FlJ9rIZibFTWOoizrGa6FHvQ68A52MmhXSXUz7qyaaKs5iibeivZU9vKfReojtupre3kN/sPc3iwktrWIEkb91FVFOTc3hOTAfL4EvUjIiIiIiISBkse0sL8Qa3RaJxVo3Yp2av3cLDmAOVHG6nCR2/rCerOJVGVP3OvIL0nDtKUvp9jjelEBQdwNB9kV2X9NywjME5bg42Bna8SdbqeWQ/IHqxn7/Yg+6vKOXByHyaCDPQ2c2hPNXX3OoMcqqdi70pq9u/n2IcmooI+ejttVO6pxD7Piau/qZJdFfupKq/i5KsmCPbSaatmV3W9TlRFRJ5kkdnsLi/CBJh+cZTf/GLmm61U/nQH9X4Y76phzx6oqtrH0S0m8PbSenovlQfamJ42EjeVszM9CthEzclNs7oZOLGdtVVtDPU5mb0I1cdgEIK+ARzOQR6kiEBf3R72cICq8qOcrILgQCfnKndR3TR9ZXJ8ifoRERERERFZet9LTU3942J3smHDBo4cOXLHdp/Px7Zt2xgcHHzogPaNN97gwoULd2xfvnw5N27ceKTx3iFyNdUfnsRSt5ayOlV2FRGRpbUoc5uIiEiYaF4TERG5cz5ckpW0N2/exOfzERc363574uLi5g1a7+fGjRvcvHlzoYYnIiIiIiIiIiIiEjbLlqKTL7/8ki+//HLB2rt27RrXr19fsPZEREREREREREREwmVJQtrPPvts3nIH39S//uu/3vHQsUU13kVVYZZKHYiIiIiIiIiIiMiC+5OEhIS/W+xOJiYmGBgY4MqVK6SlpWEwGIiOjn6oNm7cuMF///d/c+DAAS5dukQgEJh3v+joaILB4EIMW0RE5LGguU1ERL5NNK+JiIjcOR8uSU1agK+++ooPP/yQgYEBfvSjH7Fs2cMt4r158yZffvklTqfzrgGtiIiIiIiIiIiIyJNmyUJagK+//pqOjo6l7FJERERERERERETksbYkNWlFREREREREREREZH4KaUVERERERERERETCSCGtiIiIiIiIiIiISBgppBUREREREREREREJI4W0IiIiIiIiIiIiImGkkFZEREREREREREQkjBTSioiIiIiIiIiIiISRQloRERERERERERGRMDIsX7483GNYcN/GzyQiIt9tmttEROTbRPOaiIjIbIYbN26EewwLavny5XzbPpOIiHy3aW4TEZFvE81rIiIid16wVLkDERERERERERERkTBSSCsiIiIiIiIiIiISRgppRURERERERERERMJIIa2IiIiIiIiIiIhIGCmkFREREREREREREQkjhbQiIiIiIiIiIiIiYaSQVkRERERERERERCSMFNKKiIiIiIiIiIiIhJFCWhEREREREREREZEwUkgrIiIiIiIiIiIiEkYKaUVERERERERERETCSCGtiIiIiIiIiIiISBgZwj2Ax4LxGQoLTAx8/DF9X93eHPm0lYLVTxP4vJXffuHnZvhGKCIi8sBifvK/KEz/iv/4926G7pi8niLtz4pI9bXy791/uPfcFvkT/tefp/CHj+18/tW9dhQREVlkxmcofDGd2Fsb/oeJYACf9yquz77gD+NhHNu0+CwKn3+akU473XdOwA/OkIj1z7KJv/5b7M6RhRufiIg81hTS3sWy+GfIXW0m9EUb/6GAVkREniCB3w0y8swzJP1gGUNzTxKfepofx33NtU/vE9CKiIg8dkZxt/6WLwIABqLiEliZlkH+iyY+bf0tV8N9QfFrL9evg++rh5lhnyLtz/6MH//uYz6eXjEU+grv9esEvV8vyjBFROTxpHIH81j2VArPP/8Tlnn+g/bPRwiFe0AiIiIPY/waA39YhinJdMdEb0xKIm70Ole1MEdERJ40/3OTYDBAIBAgEPAzcv0q//X/tvDpaDxZz6UQE+7xjQ/xebcTT+BRGwrgcXbz+dDjsDxYRESWilbSzhX5NNbns4j9fTct3UPMmhYNRlY+YyH9x/HELLtJ0Pd7rn7+KX1/GIfIleT9uYVg1yW6rt++cjp5y6mP3/77f/EHLVkSEZElMc71AS+W51ZiMlzn+q2rjUZ+/HQso9f/Az8AMSQ+k8Wz5h/y1PcjuPn1MN4vPufTL/4w7wXKZebnWWf5mt9e+i/+cKvJLP7Pgjj6/r2Nq+MAkfzgJxae+YmJuKhlhAI+vF84cVzVRU8REVkMAa5+/jvSClIwP3X1Vvm6mMRnyHo2iR8+ZYBQAN+1Xj51DnJrkWtMIs88ZyHpB7FEMcHXIwM4u51cnw5YZ5z7xS67ydc+L184P+WLkcnZLNH6EtkGN5/f/DEZTz9F0PUxHw+YZpUJSrS+RPayz+gMJPFcSjzfXxZi9A+/w+X4HM9XN8GwkueLf4oJIK6IDc9+jbvl/8E5YuSZwgLiv/h32iYnV5Y9ZeYZSwY//kEMhpshvvr9AC6ni+uByQ+0zPw86575mk9df0JKxtPEfX8ZId91XP/ZzVW/TkRFRJ4ECmlnivgBWT9bjSngpKXLw+wLoDGk/CyfjJu9fNrazXBoGXFmCz99PpeIlo/53H+dq14Lz600Ybh+fepE9CnMSXEEf/epAloREVlSoeuDeJ+zstJk4LpnKh6NT8Ic4+Pq1P2gxmee52dJQb74zxbaRyaIiE8n+2c/47nA7AuOD24Zxmdy+Zl5FNenLXT5bmJISOE56/P8jI9pu/rIS4tERETu5BtiZCKJ+Nhl8NVNDIlW8rLj+IOjkxbvKDe/byLtOQv5q2/yUYeHcWL4yeqfkRT8nE77AL7/ieHHz+VitX5Fc9tVxqfO/Z6J+B2f/rab339tICH1Oax5P+OmvY3J6WwZEaYUnnZ9SqtjhGAoBAbTnIEtI8L0LBm/+5TfXrrOV8uewmz5GdbnI5j4uJuh0CC//d8jpBX8GT/2ttDi8nNzvuk30szqfCuxv3fS+bGXADE8/YyV1Xkx/MfHXQxNXwX9/o9J/aGD//z4U/w8RYo1l+eyMxi2fz51cVZE/n/27j4u6jrf//9DGIZBrgaFhRHRGAKFCoNWLEo7idqqddyu7eimbe3mOeXW7rr7ba39Vb+2tl/r7nZh52dn3a12a8tN1/WUetKwVTus4gaGCSIxJIhAXDjAIDPDMH7/4EJARURxvHjebzdvK8P78/685jPrfPo85z2vj8j5TO0OuvgHMebqa4gP8Qdv+3EnR78RiSSG1PL5ZzZqmltxt7ZQZ8unsDaI0WNGAB5qKmth5BiiuqLv4NGMDm6hqlynRBEROce8tRys8TJydFT3J7JmSzSBTQe7v4bZXPwp2Vt3UVzXgtvjpqWulHK7H+YRYYPbpyGaxDEGDu7ezVd1LbS6W2muKeazEgfmy8YQfFaemIiISB/eNtq8EGDwA4yMSrDgKfmMgsoGWtxuWu2V7P28nLaoMcQYAYIIGw5H6g7R0OrB426mPO8TsneW46bz2s/soOSzvVTZW3G7m6kp/ozPvqjB5XfsErrdbuNzWx0tbg+ek3222VZNUVFNxwpeTwtVX3zBQX8LCaOMnbV3jfOeOKAFQuMTiWn7ivzd5TS0tNLa0sBXuws4SDSJo3s0eWivp7SwkmaPFzzNlJcc4kjQCCKMZ3JwRUTkXNFK2m4BDOcQ+TkNjJ54JddYm8ixHbthWGBYMIGBYaRlTe+1lZ9fAP4NQRgAT205Nd6JjI42UFXpIXR0NEFN5b5vYC8iIpcgLw0Ha/FOHE20oYpKj5nY6EDstkO9vikSEGZhdJQZc/BwgoYHExbmj8cxyF2GmAkLGE7UxOmM7vm4XwD+3laCAJ0SRUTkrPMLINAAbR4vYGZEmD9h5huYnthrEAH+LoKHA247ZaV2rr3yJv4ltpaGhgZqaw5RY+9oLRAYFoyhtYHaXl8AcdNQ+VXv/ba5TtnKp72pgaae4avXTkMTjDKHQHnDSbc7xkBYWBAue23v1bBeO3V2L6NHhOH3VWehHheungV5XHjwx+A/gN2IiIjPKaTtdoQDuwuosnupLxjB5KuvIdn+KXsbOs9yfv60HzlI/s4Smtr7bOr1dJycvQ2UV7uYNHoUxsomRluCjrsYFhEROVe8DeVUuyYxOtpIVWssMQEN7DvU1W3dQGTqDVwT5aLmUBW1VTW0OlyEpWSScCY7bT9MyY7POOg6rhr1pBURkSHhZ44kjBbKu9PQdmqLPuXz6r4XbuB1A3hp/mon2TVmoqJGEDkimnGTxjGuajc5BTXAWUw1j5vKDz+OLaAVERHponYHXdo9tLZ1nCrdNV+Qf9DL6LRULJ1fDXHZm/AEhhGCG7e764+HgJAwAnscRXt5Fa3mWEZZYokOaKD8kO7IKSIivmKnvKYV8+hRWEbH4Fd/sMdNxMyMjg6ktnAnu4u+orKqjoZmL34B/VyYetvAL5CAHuc9w/Agujdx2GnyhjAyxNvjXOnGGxhCSIAuSEVEZAj4BTMmcRSB9vLOdj4t2B0QZg7G0+Nc5CaQsOH+neciP4JCgzG02qkpt7F390627a4hwHIZMQZwNTXhCRpBVFDPHRkZEXsZ0cGndwntHxbNiJ6bGEYSZQaHvetrK6c6O3poamol0BxFaK/nbSbS7EeLvUnnVxGRi4RC2hPy0FCUz1euKK5Mu4xgwNtQSmlTCInXpBI7IpigoGBGXHY1EydOICGix2FsPsjBljASrxxFQG15j4thERGRc6+5vIZW8ziutPhRW1nTYzVrK02tEDF6DCOCgwgKNmO5IpX4fhrHeg83YPeLYtyVFkKDggiNtJI6buSx/5jw1GArdzHiyokkW8wEdY5Jy5hI6mVh+o8OERE5M/5+BAYGERQURFBwKCOiLyN1UiYpIXa+KCjv/AZjKwdLqmi3TOAaazShQUEEmS0kX3Mt11xp6eiPbogm+dobyLjCQmiQEWPwCEbHmvFzOWjy9rz2u4JYcxBBQaFEj7uGa1KiCTxZ49iT8RvJ+Ksv6zjXhkZiTbuS6LYqSrsX87ThckFw9GiizcEYT3CybC4roTrgMtKuHtM9z2VXpzKaGvbpppwiIhcNtTs4GW8zxZ8VYb4hmbRxdnKK7Xy1awdt41JISLuBCYHQ5rBz6IsdFPVKYluoOthEYspwqspr9ammiIj4Vks5B1sSGB9YxcHanmelFr7KLyDoynFcc0MKfl4HDeUllNnDiD/ZXO5yCgpCuTollcmjvRypP0RxySHCUkM6B3ixF+9glyuFceMmMmV4ALgcNBzazc7iBp0TRUTkDIUQf+1NneepdtqOtGCvLSbns3LsPb7A6KkrYOdn40hOTObaxOEE4KKptpRdX9g6+rp6qij4LIjUlBQybwrEv92Fo+EQBbuKsXsBWvhq1w68KSkkTpzC8AAvrqZaSj/7gtPNxtcOrgAAIABJREFURNvrSyhsiOTKzHGE+HlxNBxk985i6rovIT1UFX5BVNp4rp40moO7stnbt1Wtu4rdO2BcSiJpN1yJARcttQfZvbOkxzwiInKhGxYfH3/U10WcTeHh4TQ2Nvq0BuOYSdxkbWLn34uw+7QSERG5GJwP5zYREZGz5VI5r0WmTucaQwGb82r0QaWIiByn7/lQK2nPJkMQoWFRJFrNtJR/oYBWRERERERERERETkkh7Vk0YtwkJo72p6WqgM9sLb4uR0RERERERERERC4ACmnPooa9f+ejvb6uQkRERERERHytrmAzH/m6CBERuWDoRssiIiIiIiIiIiIiPqSQVkRERERERERERMSHFNKKiIiIiIiIiIiI+JBCWhEREREREREREREfUkgrIiIiIiIiIiIi4kMKaUVERERERERERER8SCGtiIiIiIiIiIiIiA8ppBURERERERERERHxIYW0IiIiIiIiIiIiIj6kkFZERERERERERETEhxTSioiIiIiIiIiIiPiQQloRERERERERERERH7roQtrGxkZflyAiInJW6dwmIiIXE53XREREjmcIDw/3dQ0iIiIiIiIiIiIilyyDPsUUEREREREREREROXf6Lpy96NodiIiIiIiIiIiIiFxIFNKKiIiIiIiIiIiI+JBCWhEREREREREREREfUkgrIiIiIiIiIiIi4kMKaUVERERERERERER8SCGtiIiIiIiIiIiIiA8ppBURERERERERERHxIYW0IiIiIiIiIiIiIj6kkFZERERERERERETEhxTSioiIiIiIiIiIiPiQQloRERERERERERERHzKEh4f7ugYRERERERERERGRS5ahsbHR1zWIiIiIiIiIiIiIXDL6LpxVuwMRERERERERERERH1JIKyIiIiIiIiIiIuJDCmlFREREREREREREfEghrYiIiIiIiIiIiIgPGXxdgIiIiIiIiIjIhcTPz4/AwEAMBgN+flr/JnIp83q9tLW14Xa78Xq9g55HIa2IiIiIiIiIyAD5+fkRHByMy+XC4/H4uhwROQ8MGzaM4OBgWlpaBh3U6uMeEREREREREZEB8PPzY/jw4TidTo4ePerrckTkPHH06FGcTifBwcGDXl2vkFZEREREREREZACMRiNut9vXZYjIecrlcmE0Gge1rUJaEREREREREZEBCAgI0ApaETmpo0ePEhAQMKhtFdKKiIiIiIiIiAyAbhImIqeidgciIiIiIiIiIiIiFyCFtCIiIiIiIiIiIiI+pJBWRERERERERERExIcM/f/ayB1v7ONXN/Z8zEVt6Q5Wv/gkv9pceYa7NzLp2Y95M+UNpt3xBmc626DEzOKxRVYKly9nU12f35kyeODxGTje+QWrSoa2jLhZS3jAso1lv8/FMbS7OqngufcxccIucn5WhBsgYASWx77NlTdH0/ru63z6+4Yeg0cx5rFpWCdGM9zowVFUSMl/fkxVaTsAfhNu5oZHoeChj7C3+eTpiIiIiIiIXHRMcRnMnpFJYlwUobRyuKqE3E3r2VbmqyvJ0xAST+bNU8lIjMNsAqe9gpLcLXyUU3ZG18GGqxbwzNwkytf/itdz7GetXBGRc2kAK2lduHY8y+xp05g2bRrTbn+IF/OjmPfKKyxKHvoC5RyJuIqUuSaqVnYEtIYJ3yT9jQe4MsFJ63FnyxFc9st7GBdXQ/FTv+eTxWv4qmEsqb+8heiIjhHezz/lq8MpJN8x4hw/ERERERERkYtUZCYLHphDutWEo6yQwjI7BksqNy94kFlxnWuwzJk89NxzPLfgqlOtyjpmMNucrpCruGfRg8xOt2L21FFVVQdmK+mzH2TRHcmEDNV+zyORGd/jN6uy2VVQTMGubP749G2MN/YeY4zNYunvNvJpQTEFBZ/yt998j4zIvjOFMuG+37AqexcFxQXs2vhHnp4Vj7HvsOOEMn7WUl5blc2uggIKCj4le9Vv+F5Wn22NWfxmVwGr7uu9Y2P8XH73aTGf/m4u8afemYicpoG1O2iqpdRmw2azYdu9jTVPPssHtSnccqN1iMuTcyX49omMqC7gYGnHz2H/kgIfrmLr4r9T7/D0HhyXxOjLnRx8+SOqPm+gtbSc8hc/psaYxJiJgZ2DWjj0SSVht0zEHHBOn4qIiIiIiMhFKS4jkzEBbdjWLWf5W+/wzlvLeWlVAc0BUaRnxPu6vH6YSJ49h9SINmp3vsmyZct5/fXlvLDsTXbWthGRPpupcb6ucYiN/x6vvfZ9YouW8/Ddc/jO4+/RPPkZVr4wi+4o1JjB0pW/5baw7Tz/4Bzufng5tuTFvPbaffR8dePn/oaVSyZQ99aPuHvOd3jqY5j2wkqemRzaTwGhZCz9E3/57Swibe/x/A8f5uEfLmdDnZXv/+dfWHnf+P5D3thZvLByKVdXLuPhh9+jzH2mB0RE+jp7H5KFTuL+n/+U+2ekMDrQxcHSHXzw8rO9WyLETucnP3+UO29MIIomCj94mTdcPaa4ZQXbfxXGy9P+jTe6N4vk3/68nZ+6nmTa/Wvo25HgXDNEXsWM2VmkxpsxeRzUVRSSvW4TRfauINNM8ow5ZKXGERkRhOdwOSW5m1i3rQxn1yQh8UyZM5vM+EhCDU7K93xEznEtAUKIz5zNjMxELCEGnPYqynI3sC6nomMecyYPPZZO1SYbUZnpWEPKePsX71BEJGmz5nBjahxRQdBaW0bu+jVsKunvyyPhRE0ciauonJbORxpe/iMdzQ1GnWSbdrx93pT7/uzZZaPpPyZiuRzsRf3sXkRERERERE7JEHT8JbyzaBXLnl2HweOEmBk8tvhGogCS5vLMc1lsffUlNlWDOXkGs7PSiY80YXDaqSjcyroN+dRFnnibLVHHtxCI/9fHeXCSh50rlvHfFYA5mVlzbiY1vqv1QhHZa9aRX9dnoY8pmYzkIDi8k3UbSo61NnCUsGl9LlFTLQREmqHCDoQQP2U2MzI6roU99goKtq5jQ34dXbOa4qdwx5xMEqNMOMtzWben71ExEZ85p+N6OsKAs7aMguz1bNpzbI5zbcLtt5Nc+R53P72WfQD79vFDktny29uYHLqBtc0Qe/sj3B65k6e+8zwb6gD28aMfxvK3v3yfxVnv8aNsNxgzWPC9SdS99x1++MfPcQP79j0M1o288Mhc/mv77yg7wf6NGT/mmQWx7Hzqbr733rER27P/yvrv/Ym/LHmBBbnf5nf7TrBxaAZLX3uBac3v8fCDv+NzBbQiQ+L0bxxmtDL9pz/l1rB8/rzJ1vlgMovefJ1HU0pZ8dDtTJu9kBd3hHHnK+/y7JTOT3KMV/OT119h3uh8Xlw4m2mzf8Abrjt49NYoutZeNm9aw9amNG65tccK3dhbuSXNxdY1m3we0BJyFfc8OIe42mzeeWkZy1asIdeTwj0PziGx81wZM2Mh92QY2L9+Jcue/SUr1lcRNXUec5JNnZPEMGPhAqaE2Fj/1kv86qV3yGlN5+bUEI4tODUQN2Mh8zIN7Fm3kpeWvcSb2RWYpy5gQab5WD0BFlLTg8hbtZxnX1hFiQfiZixkTpKDrW+9xLPPvsQ7eQYy7pnDVSZOLmAUI8ZA0+c1AzsOFUWUFwUz+sE0QoOBgGBGPHgD0eynfFeP1L3ma5ocIZiTgwc2r4iIiIiIiJxURUEJzQRgnfMYjy34V6akJRJpAo/TidMD2IvYunU/hwFqC/ho/VaK7EDMDBbOv5FEUxUFOVvIrTIQN+lO5s+IO/k2pxTJlPn3cH2Sgdq8j1ifU4LHks6d82dw3KLYqDiiAqC1qoSKPimps2QDv3/996zJ79hpzJSFLLg5lShnGXm5e6gwxDHpzkXcc1VnQwRzBvPm3UxKFFQV7KHEmcTsqb1XEcdMeZAFs5MJPVxE7tY8Kojj+rkLmZPY34Xx0LK99Tjf+eFbnCgD7RBKRtbVuHLX8nHP8GPfX1lvC2PC5Ks7VromT2NSVCUf/7UjoO3QzMd/zcWVPJlJx7VGADAyee40Yov+i+ff6xvhutn31q/5a20yc2+fcPxqWuN47nvtNeaGfszjDz/P9ubTedYicjoGsJI2kMAZr/B50a86fgoMBFcpHzz5EKs7M1rj9EXcn3KQFbN/yp87H7P94gcEJnzMLxbdysvb/kzTjfczL6GQFbN/zhobgA3bz3+CNe1j/r1rV+6trNlay+u3zMC6YgU2IHbGLaQ1beKhTUP4ThBg4cYfPseNJ/xlKwWdf4vJzCK+aj0vbdjT+cmfg9xV64hbcg8ZyQZK9nio3rScZdvA4ew48ziKtpBblc6U+CgoqsCQeCMZkVVseWkDe+wAduwb1hBh/Qk3d+3SlMyUDBMFb71DTkXnY3s2sCo0jscyMojJ2UQ1QFszRevXkN81BgPmiBA8tYUUVdhxAmXb3uKFHA+e/j4uHBFMIA7sNe0DPGCNlL/4P4z49S1MXvetjofc9Rz4xSpqDvce19IAUXHh0L1GV0RERERERAbDU7KOle+1MufmDKxJk7g5aRI3tzVjy13Hmg1F2J0V5OeWkHFjEhGHC8nJ2dOxctSRx7q3K6CqiDI7YGrG8vM7scbFYXbmnHCbU4cFEVjMAXC4jG0btlHigYKCPCwBh6ntO9QUgAnwNDv7X8lqSOTGKRYCmgtYtXIVRU4gp4qHHptNyo2ZRO7ZBKkZWIOgautKXt9UB5hIvucx5qcGdM9xfaYFytfz5lu52AFyKpi35E6uykxkfcmeY99yPYeaKz/n816PxHL7gsmE7f41uc0dP1tHQ912G73Tj0psNhdRsbEdC9xiY4nlIEW2XoNw24qoZC7jY41Q13epq5WrrWHU5uae+Ibt7t1s/7yW28cnE8bnPRbIxXLbb3/DEutunv/O42zwyd3eRS4dAwhpXbh2vMi9z+7ABRAYRsL0Rfz0F3/l9cDbuf/PNkZfnUDYwR3s6PUmUcfWbYWw6GpSjH+m9uoEAo8bc5Bt+Qf5bkrXz252/Hkrte/ewh3JK/hVkZVb70ihdtOL7BjS5fS17Hz7bXL6nkmC0rljUUbnDyYsliiC4ufw2JOzewwyYAgKoC4iBDre/jHEXcWUxDgsEVGYI6KwWAJwVnUc6hBLFAb7fmy9Ppm0U1Z+mLaozh+j4rAERZC44ElSew4zBBHgsRMBHSEtTppbew7wUJKTi33eXJY8lkGZrYKSkgIKi6r7v1NmSAj+J2hfcFIRyVz96i2Yi7bz2a/243CEEDbjBlKeXAD/z+/Z+8+usNeD1w3+xiFrPS8iIiIiInIJ8VC3ZwO/37MBU2Q8ySnpZGRehfX6e5jvWcHyTdUn3sxRR60jjvTMO8i0RBIVZelobxBwJtdqFeQVHSY1PZ2Fj8dTVVGBraSAvLy640NQZxtOwBRkwgAnD2rNFqKCoG1/ISVdk9j3U2afzZhICxaDAY8lEjiMragrSnRSUlhFW2po9xyWUAgInc0Pn5nde/7QCELAJyFtn0LI+PFrLE228ep3/toRnBrDCDWCq9Z13Gi3ywWxoR0hbVgouOo4blSzCxeBBIadYHfGMEJDobm2iZNd9jc3ucAaSih0hrSBWBe8xjOjowis3UeTWz0ORIbawN6Rm2opLCrq/sdctDufg2Ef8+79/8bVf/4FTWdSQWBgrx/du//MBwfvZMYtybzMLdyScJBNP9l50jeSs6LNg7O2jrq+/RRMdjw9e8Ua2mgtWsPyjyr6DPTgcTgAE8l3PMI9ic0UFRRRVlBCbe1hLLMXMeW0CjJAWxU5b73d+Ylajz15nP2eUJxlG1i+LJf4xCQSk+JJm7OIWTfn8taKDZSdbEOHg3b88Rvg3RmDb59MtDufnKd2dH7C10DL/7+KthH/wTX3plLyz/zO18uAnxHa3b7q+iMiIiIiInKxMBEZH0+U4TBlJdU468rI31ZGfkEtj/zkZizxVsxUc6JOBSFpC3jsziSo3U/R/iJy8yq4as71jDndEnrdFNpJyZrlvFqYTnpKInHxiVyflMr1mXm8uXzNsZAVoLaC2rZJJMUlEmcooqzHJaIhcQbzMi0czlvHf1cNvJRThRltto94a1NZ70C47fAJj8+5ZSR+7m/4zYJQPn78YX63rzPtcDfR7IbAqMDjtwgMBJcbF+BqaobAQI4bFRpIIC5cx2e8HXM3Q2hUGEY4Yb4SGhYITc29VvGGRTXz1x8+Rd33f8szv7wP24N/ZJ+yWpEhc/o9aQFwU1tZ2/HGYISDu0tpGn0t11p7jonkxikpULqbQjeU7i7FddyYBKakRfV5cylizZpSRs/4N269YwYJpWv483lx0yknVVV2gixxhNrt2Lv/QERUROcJIp7U5BDK1v+eVRu2kbuniLJqDyGhx85kjqpanOZ4rOaec0cSPybi2PmutoxazFgiPT32Y8dpiiLK1M+njoDJHEOkoY6yPTlsWvMOr7+0gQpzBpnx/ZzCGlpwEUJQtP+AjkRAiD/+DkefOtrxODz4BwdybJZwgkeAq6JxQPOKiIiIiIjIyZhImjGf+QvnMjXu2PWdIcKMCWjztPZZ0GPo/t/41HiCsLFp5Vus2bCNnBJ7n8C17zaAx0MbEBrZdb1rxhLZo6erIZLEq1IZ4ylkw5q3eH3ZMt4rbIWIRJItfaZ1FpFb0goR6cyeEU/3LKZ4Zs3OJCkpCux2sFdR2woBlhS628eak4g3A3VVVHk81FbVARFYk2O6j0tiiuXY0+maI8KMp6qCiooKKqogMj4eS6jBZzcO6xI76wVWLk2m6PmHebxX/4BKbAchMtZKaO8tsFoDqbXZOlbPVlZSiZXkXtkKGK3JxFLJPtuJUlQbu21NRE3IIPZERRmTmTwhilpbUa9FeLa3fshTG7L59Q+XUZS8hBeWZBzfs1ZEzpqBraQNiyLBau1udzA65RYW3Z9G09YVFLrBvXkFbxS+y6OvvEjTi2+wozaMlDse5afX1rL6oQ86lspvXcE7pX/tGPPsG+xoCuPa+3/KrWEuXH2W4to+WEP+o4/y8zsDyX/5A2zHV+QT1du2sj99DvfMs7Muu5BaTwTxN85hTnIzG5b/nlx7LYftkJ6eQWJt5+8zZ5DeI5D1lGSTU/UIU+f/K63rcihrDSI+cxYZIa20dbUucBaxJTeLB2bPY5ZnA7kVzRgsGcyek0lE4Vu89N9lJzmxmEm/ZxFTyWHNulwqnCYsqVdhoY7c2n5ORW2HaCiHy5JHwt+/PuVxaNpUguPm67j60RaKP6yk1W0geOJ1pNxson5lEd0dGKK/QViIA3uR+tGKiIiIiIicGTsFOYVMGZPC9Q8swVpRQTMRWOIshNJMQU5RR0jraMbRBsRnseCeULas24b9sAOII2P2FKgwEZ+eQa8c9QTblFWUUNGWgnXSPTwQVILdHE98VM+NQkm9eQ7pIbUk5uZR4bGQGh8ErYWUHdeU1knR+nUUxs0l5foHeTyliqpmiLBYCA2Aw3nr2VQBUMLW3CqSb0zljkUGCmxOopKuYkxAK4VbczqyhYJcbFPmYL1xIQ9FlFBniiM+rme43DXHJBY8EEReWTOhSemkWsC2roDcs/yqnI7QyU+z8oXJ1L36IA+/t6/PitZmcrcXEbj4NqZFbmBt1zd9x9/ObGsTn7+6u2N80XZ2N81l2u0TePX5rpuHhTLt9gwCbW+x84R3XHez/b2Pqf3TApbetoHvre0ZDhsZv2Apt0cV8ep7PW9G5qKptq7j57I/8rPnJ7HqmV/yzM57+Fm2z2/rLnJR8o+IiHi6n1+T8u3HmHnDjcy77z7uu+8+7pt3DzPTwqje9Et+9PSHVLYD1PHPjfkcSbuV7/37IzwybybfDC5l9dM/4hefdP7jba8jZ9Me2r/5bRY99hj/fs+NxOxfwYt7kphp2cMf/7L72LL65oPwze9x62U7ePnxP1F0ZAiPQEgi134zgtrcXEr77scQS/oNCbj3bGNvA+CuZm9hPWHjJ3PT9H/hpowrsXgP8PfV77Pjaw9whAO2eswpN5GVlUVmejzBlZ9S7E3EcuRzPi22d4zZewBP3ESyZkznpoxxhFRt4X8qYkgNryQnvxI3XppKvuCAZwzpN00lK+tGvhkfTEPBOt79nxKOeAFTHN+8Nhb7P3dQ2t1w1klFaQ0hl1/HjdOnkzU5nYTgBv659n02HeyvSYKLtujxWNM9VH94kLZevwsl6vZUhn+VT3l+R/x6tM5G1RcewrMySJg/mctvTSVylIPaP37AnnUNeLsO3003kJxQzb43SnF6ERERERERkTPg/rqIfbVGRn4jmmjLaGLCDbjryvjn+lV8uLep41rM+zVV9RHEjonjstgIWot38NmeKgyWy0hISWVcXDB12z6lbmwS0c5ScnIP4DzBNiV1lZTVR2AdG8toSzjeg39nc2UUV472o/KfORTb7ZTYDhMeezmJ469kfFwYnpo9bFq9jvy6EywScn7Nnt0VOIPDGBllIeobw6HhAHv+voZVm0rouhx3lBZywBOOJS6BpMstBDsqyNu4ir993nmt6aykqMKDJS6eOKuF8JYCPvhfJ8njo3CU5PBZhbN7jjHWRBLHW4mijr0fr+L9HV+f8Upak8lEW1vbqQf2YZzwPd587SEiP1vGL9fWEBYTQ0xMDDExERiO1NHshmZbDdG3fZ8HboqgsryW4dZp/J/nFnNl5X/x5Iu7OkLq9nJsnutY8P27uKqljEpXDNcseIal/zqcj//fJ1ldduJ+BO2Vn7Ev7Fv8x+IF/Eu0hyPtgcQkZnDz4ud4buFYSl76EU9tqqEdwN/KzQ98i7Dct1j9eccr07wvlwNj7mLxgmuo/ugD9g3hvd1FLnQBAQG4Tth7pDeTydRr3LD4+PijQ1nY4IRyxxvb+bnrSSYv+hD92z8HIq5i4hvX0fTj/6K49GxMGMyYX3+f2F1v8Y/3Gs7GhCIiIiIiIiI+FR4ezpEjp7uSzMis1/6X30470V29mlj/H9fzo+yOcNUYP4ulzyxm9tVWwqilaPtbPP/U78jttXg1lIz7nmHp96dhjQLXwd2sX/4Uz68tO8X9fEIZf9tiFi/IIsM6mkBqqS3KZcN/vcqr2T22NWbxm//9LbGvTuWeP/bYsTGDpetWMrfpVe7+zu/Un1bkJIYPH05j46lbf4aHh/cad96FtJHWq0lIu59f/CKNHQun8fOd+ld/rgTPvY+JE3aR87OiM75Rm9+Em7nhUfjioY9oOP0PGUVERERERETOO4MLaUXkUnKRhLRX8+Tmd5kXdZAdK57kByt2ahWtiIiIiIiIiJwXFNKKyKlcJCGtiIiIiIiIiMj5SSGtiJzKYENav6EsSkRERERERERERET6p5BWRERERERERGQAvF6vr0sQkfPcYN8nFNKKiIiIiIiIiAyAx+PBz09RioicmJ+fH21tbYPb9izXIiIiIiIiIiJyUXK5XBiNRl+XISLnKaPRiMvlGtS2CmlFRERERERERAbA6/XS0tKCyWRi2LBhvi5HRM4Tw4YNw2Qy0dLSwtGjRwc1h+Es1yQiIiIiIiIictHqCmqNRiMBAQFqfyByifN6vXg8HhwOx6ADWlBIKyIiIiIiIiJyWrxeL06nE6fT6etSROQioY97RERERERERERERHyo35W0jyYOP1d1DMjLJUd8XYKIiIiIiIiIiIjIWdV/SJsUcq7qGBCFtCIiIiIiIiIiInKxUbsDERERERERERERER/qdyWtdf3X56oOERERERERERERkUuSVtKKiIiIiIiIiIiI+JBCWhEREREREREREREfUkgrIiIiIiIiIiIi4kMKaUVERERERERERER8SCGtiIiIiIiIiIiIiA8ppBURERERERERERHxIYW0IiIiIiIiIiIiIj6kkFZERERERERERETEhxTSioiIiIiIiIiIiPiQYSCDhg8fTkhICP7+/gwbNmyoa7oo2e12X5cgl7ijR4/i9XrxeDy0t7cPag5/f38MBgN+fn56LzhDZ+P18PPzIyAgwKevR9fzaGtrw+v1+qQGERERERERkQvdKUNas9lMUFCQAhmRC9ywYcPw9/fHz88Pj8dDW1vbaW0fEBCAwWDQe8FZcqavh8FgwGg0DlF1A9f1PPz9/XG73Xg8Hl+XJCIiIiIiInLB6bfdQVBQEMOHD1coI3IRGTZsWPdq2IHy9/cnICBA7wVDYDCvh5+f33kR0PZlNBpP63mIiIiIiIiISId+r6aDg4PPVR0icg4NGzaMgICAAY83GAbUGUUG6XRfj9MZe66dz7WJiIiIiIiInK/6DWn9/f3PVR0ico6d7spNGVoXy+txPtcmIiIiIiIicr5SSCtyiTqd1gVqczD0LpbX43yuTUREREREROR8pSVPIiIiIiIiIiIiIj6kkFZERERERERERETEhxTSioiIiIiIiIiIiPiQQloRERERERERERERHzL4ugARERkaz40PZI4l4KzMta6qjSf2uc7KXCIiIiIiIiLSm0JaEZGL1NRI/7M210Tz2ZtLRERERERELm7x8fFMnTr1tLZZv3491dXVQ1QRmEwmkpOTiY+PJyIiAoCysjIKCwuHdL8DpZBWROQitTC/layos/M2v8veflbmERERERERkYtfVlYW8fHxp7WN1WodsrA0LS2N2bNnExQUdNw+s7KysNlsvPPOOzidziHZ/0Cc45DWyMxlW3ji2h4PuZqpL89n44pXWLHT96n1hcPKLT++lwmmHg95HFQfKGT7xs3sb/RZYT7mT8rcx7ktocdDHif2mlLytmzmH+UtQ7v7UdN56N4kKteu5EObvhouvlXccpTiljZflyEiIiIiIiKXqMOHD5OdnY3dbj/l2LKysiGp4Y477iA9Pb3756qqKqqqqoiIiMBisWAymbBarSxZsoSVK1f6bFWtD1bSunDlr+ChX+3EDRhDxnLFt7/Loud/jXHx/bxS6D6DuS9n0TuvM3n7Q8xb8WX3o8bUcDJIAAAVAklEQVSs59m4FJ6fuZTsM5n+PFS55Q3WFnYEj4bgWFKnTue2+QbeXbGR8kt24ZsHT+kmVm604QEMpnBi06cz/d65mN78PZ/UDOGuGw+wvxhqGhXQ9jRq5sPcn24GTylrX3qPQh0eERERERERkYteXl4e+fn5ZGZmYjKZ+h3bd+VtXl7egMLd/qSlpXUHtFVVVaxevfq4EDYzM5OsrCyCgoKYP38+y5cv98mKWt+0O2huoLy8nI68tJwvC6uwJL7JzG+nsaJwJxdZjjqEPHicjTQ2dq4ObWzkk/cNRD82nYxxmygvvGRTWvC0YG9spB2gsZH6jasJHvUIGRPH8MmH5UO335b9fPLh/qGb/4I0iglWc8dfDbGkJARSeJoprfWWH3PvBAe5K19n81CG7CIiIiIiIiJyVnW1GjhdFouFd955Z9D7NZlM3futqqpi+fLlJxyXk5ODzWZj8eLFREREkJmZyZYtWwa938E6T3rSlrP3QDN3WWIIAdwzl7Huuw7+kB3CrDlpxJSvYN5D71MdksZdP1jE3ZMvZ4TRTUP5XrL/sIwV26shZA6v/s9PSAMY+yafzq/ib4sXkp31Jq9+2wLAM1s+5Zn8X/Gvi/dy9zuvM3PvUu56/lgobExbwjuvprH9+/N4pdBHh+JMuWqotxsYEx4CNAL+jEydwczrkog2h2Dw2KkpzmHjxnxq2iEw5U4emQkfvLSa/e0AgaTOf4xbR+7l3eUfYmsHCOe6BxaRXv4nXtt8yJfP7gw0UlPvxGQ2E0g5rvCJLFyUSs2WckZmpDI25ADvL1vN/vZgxkycztSMBKJDDDjtNRzI28TGXYdwMZLrHniQ9EPv8trGHkHvqOk8fL+VwpWv84lzIgsXpXPgzde7V+yGW29i+k2pjI00gdNOzf5/sHlTwaVz/EddgdUMHrsdp9nM2JSx+Bfu5xL+CEFERERERETkktF1k67T1bd/7OlKTk7unmP16tX9jq2uriY7O5usrCzS09Mv5ZB2BDEWI+76BhyAEcAymVljVvDKQ8soaWigwXg58379PHe7N/LK0ufYWx9C4qx/Z8nTv8a45H5eyV/Hj79VwqLXX2XSzsU8tOJL3G437r3z+Nbep1m3xMiyOUvJdrtxAxs2fMldd2eRZtzJTjeAkbSZkxhRks3fLtSAFsA/nOAQcHUuy/a3zmTuzLHUbFnLm4U1OEMSmP7tW7lzRj0rNpbjKt1PpeEmksb6s9/WDv4JJEUbwDCWcdFgOwQEJzEu0oFt4wUYEHYLJjzEgMfhwNP1kCGGlNQaNq9dyfv1Djzt/oy6aS53pTSybePbrK1xYhqbwcyZ93IvK3lzVz2FBTVMyUxlzKby7nYSoyYkEVKdR14NEN57r4HWW5h/WywHtqzlTVs9nuAEJs+czvzbPKxYXUjLJXD8o6+wYsZDac5mHFPuYsLYFBL893eG0uCfMpfHb0ugctNy3tzV0Ux5zMxH+U66h7w3VnAgcwm3jTMAJjIefIL04rUsW11IO8GMuW46U9M7AnWPvZLCf2xkU0H9WQmAv/GNbzB9+nTWrFlz0q85mEwm7rjjDjZv3szXX399FvZ6do0LHsbUM7hx2L5mL5/UK04XERERERGRC4/VagU6VtEOpM9sYWEhWVlZREREEBMTc8570/o+pDXGkDZnCfOvcLD9Z/kdfWoBXPm8/fz77HR0Dps8n7tj8nll3itkdz5WveIpQi5/n0Uz01iRvxO3oyOAxe3G4e5cH+t20/FXd0do2/lwefbHFH53PjMnGdm53Q3GNLImjeDLt//GEH4ZfmgFRpMy/SbGGSrZtL/j6+Tttg9ZuTwQV0vn18tbCvnH/skstMYSQjmNrlKKK2eS2ZkI+o9NItbxObmN47COGwmH6glMSCDaaWPLhZkRgn8wo1JvZcpYB8V/OnAswPM4KN78IQVdzyswhcx0E4Xv/p5dnY81Fm5mbXAsi9LTid71CTWFn1M5dQqpY/0pt7WD/xjSk0Ko3FbA8fdqCyd1yhU4c1bwYX7nbxsL+PDDaGIXZpAUXEh+y8V+/KNJsUaC5wDF+0tpHOtkwhUJpCT4s3//QMK/dioLtvB5+FQmxHg4kJdDcWkl7UD0dXO5d2oMnupiCvY7CU+6gvRbFxLsWcHqwjO/QVxTUxNBQUHMmzfvhHd4NJlMzJs3j2HDhtHU1HTG+xsKb6YFERrgd0Zz7Gtu54kiJ8UtR89SVSIiIiIiIiJDr2sFb1VV1YDG9wxlz3QV72D4IKQNJHDKM2z59JljDzUfYNvLP+OV7Y5jjzkaaOjRnDbmirGMHDmGpe9vZEmP2YzGQAILO9okNJxOGdXZbMj/Lj+YOZmQ7dm4J81kUkghf8j2zR3cBsfA2FmP8cSsY494HJXkvb+W/J4ZlWksaaljiY0eidkczsjoSAx2U+eL38L+vZXMyLiCaA4ROC4WT/kH5FSGkJpuJRw7sUmxOEtzqTy3T+4MGDCMu4vHn+jxkLOavRtWs7HX3dSctPRsjToylmiTmZB7f0xKr+lMGDx2woGalkLySqcyMzWBjbb9MDaVBMMBPjlhKDiS2JEGYqY8yI8ze9dnMjiICQdaLsbj38PIFJIigcpibC3tOPYfwHnFOBJSxuK/3zagFa+N+3dRmDSFCTEOavL+wa4awN/KdZkxGBx7Wfv239jvAnJrWLhoBuOuy2Bk4SfUn2HpTqeTt99+m/nz5x8X1PYMaN9++22fNBQfiC117cyxnFlIOz7UnzfSgrh5xxGaPaceLyIiIiIiInI+GWy7hXPNByGtC1f+H1j8cmcvWLeD6vJqHKfYygi4qrJ5+sdvc6DP79yOhtMLaAFoYPvGfH6wJItJITth5iSMO5eRffoT+VR1zp/4sNAFBJIy814y2Eue7VhgGJ46l4UzR1K/t5BiWwGF9no8Cbdwb9KxOVpsxdTMSMU6chQhYwwc2FxJS00x9dOvwBpez9ixHg6sPXAB9RD14DmwhTc32jpaG3ic2BtbBlC/ATzV5L67mrw+mavH46QjhnNRXFDKzFtTSQgshdQEDAc2UnzC+2AZAA8HNr3JB7Y+6ZbHg7NzHxff8T9mZJKVSKD6gK1jpXHpfio940gYm8JYf1tnz91BMEcz0gSe0v2Udh37RhsH7BAbGU20P5yNb+mfKKgFLoiAFuCJfS6e2Hd6N2nrEmqAqSP9eTwxkLAAPx6/PHDQc4mIiIiIiIicazabjfj4eMxm84DGx8fHd/99oKtvz6YzW2I1WM3VfPnllx1/BhDQApTvPYBjRCJjKKe8vOtPA0bLWEYY3aee4AQc2zey053GzJlZZKW52blx54BqOX94cNnrqampoaamnE825lIXPYXpqV2NUQMZmzoW9m7k3Q8/YVdBIbbyGjCF9E7nG/dTXBfJuIx0xoRUsv9AO7TYKLZHM25yKmM5QOGBCywidDZSV19PfX099QMKaIH6A9RjJjrSQ2NjY/cfp2kkI010z9FemkexZyypKVeQmgDFeaWcOLqqobIeRsaG4+gxX6MnmJEjDcd6416Mxx+AkSSlxAAQk7mIJ554gieW3EqCAQhJIGWs/8k37edX51pXUDts2DDmzZt3wQS0Z6rZA+tq2vnPr9oA+Kb5PHpRRERERERERE6hsLDjplMRERFkZmaeYjRkZWUBUFZW5pPrfd+EtIPg3vk2f/lyDN/95dPcNelyxoxJYfK8p/nl80uYnxbSOaqBqgaImfRtstIuJ8bY9XADDYFXkDVnEmljRvSclI07HaR9dxGTHB1/v6DVbGNzgZOEm6aTEgjgwl7vwDQ2ldQxIwkPj8aa9m2mp5j6bNjI/sI6YtMnEFlZSEce2IjN5iBhwhUYDuzngswIT5ermG15DsZOv4vpKaMYGR5OdNJN3DX3Lm7NiD6WG7aXk7ffScLU6SQ495N30uWgjRRs24vnilu566YkosPDGTkqhel33ctd09OJ7DHuojz+4UmMiwEclXyel0de159SOxBCQkpsxzH1ePAAwZHhncc4nOjIvv8fBTAcC2/tNdQ7wRCdREJg1/6sjDUDdTXUnOXj1TOovZgD2nHBw457bJ+j42DGBl0wpwsRERERERERqqurKSsrA2Dq1KnExMScdOzUqVO7V9JmZ2efk/r68v2NwwbK/SXv/GwJ7kXf5e6nX+fRUGiu+pLtr/yMVzZ29ShoYOPLrzDpie+ydNlkspfexfM73bjz/8ArfxnLD777PMumrWDeQ+/T0XnWTf7fdtIw69uQ/TfyB7cg9zzSTvmWjexNupebplsp/dBG+abVbLp1JlPuXcQsnNSV5vCPgpHMtPbest5mo25qJC3FB7pXhdYU27BnmqkvPNlK0YtNO4c2v8279ulMvele0s0mcNRxoHAtb28p77Ua91BeIfb0TCjIo7/7eblsH/L22puYPnk68zPMmHBQXZrH+xs/oabHuIvx+IcnjSMWsBdu4sPNPY5ScBojH5nF2IQriKWc8spSKj3jGJt+G98JLMVuHsvYkb3namlxAJGkzLwTw65P2Fhg4x951YzLvIJbFxooLHcy0noFsQYnxf/IPeN+tCfSFdR2/f1i89z4QCqdXopb2no9Pj6kIxk/1Or1RVkiIiIiIiIig7Z69WoWL15MUFAQixcvJjs7m8LCwu6bhMXHxzN16lSs1mNB2UDbI5xtw+Lj4096y+5Ro0ady1p8I+UHvPNqGtsfup8VXw7dbux2+9BNLjJIR44cGdC44cOHn+bM4Uxc+AgzYu3kvvEam3sl2cGkzX+EWWMd5L3xGhsPQXjKLdw5/QpiTE6qi7fxD1cGt6Ubun9P4Biuu20mmWMj4cBalr9XiItgxlw3nanpCUSbDXjqKin8x2Y2FdRckP17YShfj/49Nz6QOZYA/rPM1d3eAGBOtD//p7Mn7Z8q3Px/Xw7sk6yBPg8RERERERG5OM2bN4+UlBTWr1+PyWTqbiVwOsrKyli5cuUZ1xITE8P8+fNP6wZiq1evJj8//4z33Z/w8HAaGxu7f750Q9qQGC4fk8i0f1/KHFZw/+J1natrh4ZCWjkf+SoUlBM7269HV/jaV1Obl/vzWyluOXrSMT0davVyxz+P0Ozpd1g3hbQiIiIiIiKXNrPZTEpKCnl5eWRmZvo0pAUwmUxkZmZy/fXXYzL1brFYVlZGdnY2ZrOZO++8s/vxoQ5q+4a0F067g7MsZPIPePWJSbj3bmTZU0Mb0IqI+MLUyBPf7CsswI/xIX4ccrUzPrT/XrO7Dnt4osg14IBWRERERERExG63k5OT4+syujmdTrZs2cKWLVuIiYkhKCgIgKqqquNaGnYFtXfeeSdOp5OioqJzUuMlG9I6Ni5l5kZfVyEiMnQW5reSFXX823yzB7bUt9Ps6RjzZloQ40L82XXYwy77sWYR2bUeiltO+mULERERERERkVM63+7r0tWP9kS6Vs52BbXXX3+9QloRETkzxS1Hj7sRWF89g9pd9vZePWlFREREREREzlRhYSEWi+W0esICZGdnD1FF/cvPz8dut5OVlXVOa7h0e9KeY+pJK+cj9aQ9v/jy9Qg1wESzP1vqzvy2a+pJKyIiIiIiItK/vj1p+29GKCIil4RmD2cloBURERERERGR06eQVkRERERERERERMSHFNKKiIiIiIiIiIiI+FC/IW17u776KnKxOnr0pO2oRURERERERETkHFJIK3KJ8nq9vi5BREREREREREQ4RUjrcDi02k7kInT06FE8Hs9pjZehdTrH+Hx+Pc7n2kRERERERETOV/2GtE6nkyNHjpyrWkTkHGlrazutlfJadTv0TucYn8+vx/lcm4iIiIiIiMj5ynCqAY2NjRw5coTQ0FACAgLw9/c/F3WJyFnm9Xrxer14PJ7TDtLa2trw8/Nj2LBhQ1Tdpe10Vza3tbWdt+/FbW1tvi5BRERERERE5IJzypAWOi66GxoahroWETlPdYW7AQEBvi7lojSYlc1utxuj0TiEVZ0+t9utlbQiIiIiIiIigzCgkFZEpCtINBgM+Pn54efXb7cUOYUzWdkMdG8XEBDg01XOR48exev10tbWpoBWREREREREZJAU0orIgHWt4JTzg9frxeVy+boMERERERERETlDWgonIiIiIiIiIiIi4kMKaUVERERERERERER8SCGtiIiIiIiIiIiIiA8ppBURERERERERERHxIYW0IiIiIiIiIiIiIj6kkFZERERERERERETEhxTSioiIiIiIiIiIiPiQQloRERERERERERERH1JIKyIiIiIiIiIiIuJDhoEM8vf3JzQ0lMDAQPz9/Ye6JhEREREREREREZHzXnt7O06nE4fDQXt7+6DnOWVIazAYGDFiBHa7naamJrxe76B3JiIiIiIiIiIiInKx8PPzw9/fn5EjR1JfXz/ooLbfkNbf3x+Px8PXX389qMlFREREREREREREzneXX345dXV1g16g6nQ6CQ4OpqWlZVBBbb8hbUhICI2NjYMqTERERERERERERORC0NLScla6CISHhw8qT+33xmEmk2nQBYmIiIiIiIiIiIhcSgabp/Yb0uomYSIiIiIiIiIiIiIDM9g8td+QVkRERERERERERESGVr89ac9r/maSZ85hRsJwqN3BH/6cT7OvaxIRERERERERERE5TRfmSlp/M1fdMoepEWVsLTiMx9f1iIiIiIiIiIiIiAzSBRjSBpE0cw7XB5fx4aptHGhu93VBIiIiIiIiIiIiIoN2AbY7aOVg/lb+VvsV1W6I8HU5IiIiIiIiIiIiImfgAgxp4UjlVxzxdREiIiIiIiIiIiIiZ8EF2O5ARERERERERERE5OKhkFZERERERERERETEhxTSioiIiIiIiIiIiPiQQloRERERERERERERH7ogbxyGfxDDAwEMDB/uDxgJDg2ivR3wtHLE7dvyRERERERERERERAbqggxpI9Ju4b7rI3s+8n/buWMaCKEAiIKrCTPX4wgFCLigAQO/QsY1JChAw4ViQzKjYOtXbD7zlCS5ji3r/usMAwAAAAD40ysj7Tm+WUZ7BQAAAADAcz5pAQAAAACKRFoAAAAAgCKRFgAAAACgSKQFAAAAACgSaQEAAAAAikRaAAAAAIAikRYAAAAAoEikBQAAAAAoEmkBAAAAAIpEWgAAAACAIpEWAAAAAKBIpAUAAAAAKLoBXX3nhla2Nw0AAAAASUVORK5CYII=;" vertex="1" parent="1">
          <mxGeometry x="276" y="187" width="1385" height="418" as="geometry" />
        </mxCell>
      </root>
    </mxGraphModel>
  </diagram>
</mxfile>
